<?xml version="1.0" encoding="UTF-8" standalone="no"?>
<!DOCTYPE svg PUBLIC "-//W3C//DTD SVG 1.1//EN"
 "http://www.w3.org/Graphics/SVG/1.1/DTD/svg11.dtd">
<!-- Generated by graphviz version 12.2.1 (20241206.2353)
 -->
<!-- Title: G Pages: 1 -->
<svg width="2169pt" height="1057pt"
 viewBox="0.00 0.00 2168.95 1056.95" xmlns="http://www.w3.org/2000/svg" xmlns:xlink="http://www.w3.org/1999/xlink">
<g id="graph0" class="graph" transform="scale(1 1) rotate(0) translate(21.6 1035.35)">
<title>G</title>
<polygon fill="#111111" stroke="none" points="-21.6,21.6 -21.6,-1035.35 2147.35,-1035.35 2147.35,21.6 -21.6,21.6"/>
<!-- App.css -->
<g id="node1" class="node">
<title>App.css</title>
<path fill="none" stroke="#cfffac" d="M240.08,-927.75C240.08,-927.75 191.92,-927.75 191.92,-927.75 187.96,-927.75 184,-923.79 184,-919.83 184,-919.83 184,-911.92 184,-911.92 184,-907.96 187.96,-904 191.92,-904 191.92,-904 240.08,-904 240.08,-904 244.04,-904 248,-907.96 248,-911.92 248,-911.92 248,-919.83 248,-919.83 248,-923.79 244.04,-927.75 240.08,-927.75"/>
<text text-anchor="middle" x="216" y="-910.45" font-family="Arial" font-size="14.00" fill="#cfffac">App.css</text>
</g>
<!-- App.jsx -->
<g id="node2" class="node">
<title>App.jsx</title>
<path fill="none" stroke="#c6c5fe" d="M52.33,-666.75C52.33,-666.75 7.92,-666.75 7.92,-666.75 3.96,-666.75 0,-662.79 0,-658.83 0,-658.83 0,-650.92 0,-650.92 0,-646.96 3.96,-643 7.92,-643 7.92,-643 52.33,-643 52.33,-643 56.29,-643 60.25,-646.96 60.25,-650.92 60.25,-650.92 60.25,-658.83 60.25,-658.83 60.25,-662.79 56.29,-666.75 52.33,-666.75"/>
<text text-anchor="middle" x="30.12" y="-649.45" font-family="Arial" font-size="14.00" fill="#c6c5fe">App.jsx</text>
</g>
<!-- App.jsx&#45;&gt;App.css -->
<g id="edge1" class="edge">
<title>App.jsx&#45;&gt;App.css</title>
<path fill="none" stroke="#757575" d="M30.49,-667.02C29.16,-705.79 30.61,-827.74 96.25,-889.88 116.36,-908.91 147.05,-915.27 172.2,-916.93"/>
<polygon fill="#757575" stroke="#757575" points="172.01,-920.43 182.15,-917.35 172.3,-913.44 172.01,-920.43"/>
</g>
<!-- components/Header.jsx -->
<g id="node3" class="node">
<title>components/Header.jsx</title>
<path fill="none" stroke="#c6c5fe" d="M286.96,-805.75C286.96,-805.75 145.04,-805.75 145.04,-805.75 141.08,-805.75 137.12,-801.79 137.12,-797.83 137.12,-797.83 137.12,-789.92 137.12,-789.92 137.12,-785.96 141.08,-782 145.04,-782 145.04,-782 286.96,-782 286.96,-782 290.92,-782 294.88,-785.96 294.88,-789.92 294.88,-789.92 294.88,-797.83 294.88,-797.83 294.88,-801.79 290.92,-805.75 286.96,-805.75"/>
<text text-anchor="middle" x="216" y="-788.45" font-family="Arial" font-size="14.00" fill="#c6c5fe">components/Header.jsx</text>
</g>
<!-- App.jsx&#45;&gt;components/Header.jsx -->
<g id="edge2" class="edge">
<title>App.jsx&#45;&gt;components/Header.jsx</title>
<path fill="none" stroke="#757575" d="M34.66,-667.21C42.02,-690.56 61.27,-741.17 96.25,-766.88 105.19,-773.45 115.46,-778.46 126.14,-782.28"/>
<polygon fill="#757575" stroke="#757575" points="124.88,-785.55 135.47,-785.25 127.01,-778.88 124.88,-785.55"/>
</g>
<!-- components/ProtectedRoute.jsx -->
<g id="node4" class="node">
<title>components/ProtectedRoute.jsx</title>
<path fill="none" stroke="#cfffac" d="M312.08,-521.75C312.08,-521.75 119.92,-521.75 119.92,-521.75 115.96,-521.75 112,-517.79 112,-513.83 112,-513.83 112,-505.92 112,-505.92 112,-501.96 115.96,-498 119.92,-498 119.92,-498 312.08,-498 312.08,-498 316.04,-498 320,-501.96 320,-505.92 320,-505.92 320,-513.83 320,-513.83 320,-517.79 316.04,-521.75 312.08,-521.75"/>
<text text-anchor="middle" x="216" y="-504.45" font-family="Arial" font-size="14.00" fill="#cfffac">components/ProtectedRoute.jsx</text>
</g>
<!-- App.jsx&#45;&gt;components/ProtectedRoute.jsx -->
<g id="edge3" class="edge">
<title>App.jsx&#45;&gt;components/ProtectedRoute.jsx</title>
<path fill="none" stroke="#757575" d="M33.75,-642.66C39.86,-617.33 57.57,-559.14 96.25,-530.88 98.06,-529.55 99.92,-528.31 101.83,-527.13"/>
<polygon fill="#757575" stroke="#757575" points="103.26,-530.34 110.42,-522.53 99.95,-524.17 103.26,-530.34"/>
</g>
<!-- components/ProtectedRoutePage.jsx -->
<g id="node5" class="node">
<title>components/ProtectedRoutePage.jsx</title>
<path fill="none" stroke="#c6c5fe" d="M327.83,-847.75C327.83,-847.75 104.17,-847.75 104.17,-847.75 100.21,-847.75 96.25,-843.79 96.25,-839.83 96.25,-839.83 96.25,-831.92 96.25,-831.92 96.25,-827.96 100.21,-824 104.17,-824 104.17,-824 327.83,-824 327.83,-824 331.79,-824 335.75,-827.96 335.75,-831.92 335.75,-831.92 335.75,-839.83 335.75,-839.83 335.75,-843.79 331.79,-847.75 327.83,-847.75"/>
<text text-anchor="middle" x="216" y="-830.45" font-family="Arial" font-size="14.00" fill="#c6c5fe">components/ProtectedRoutePage.jsx</text>
</g>
<!-- App.jsx&#45;&gt;components/ProtectedRoutePage.jsx -->
<g id="edge4" class="edge">
<title>App.jsx&#45;&gt;components/ProtectedRoutePage.jsx</title>
<path fill="none" stroke="#757575" d="M32.2,-667.24C35.56,-697.65 48.66,-776.42 96.25,-814.88 97.55,-815.92 98.88,-816.93 100.24,-817.89"/>
<polygon fill="#757575" stroke="#757575" points="98,-820.62 108.36,-822.83 101.64,-814.64 98,-820.62"/>
</g>
<!-- components/Searchbar.jsx -->
<g id="node6" class="node">
<title>components/Searchbar.jsx</title>
<path fill="none" stroke="#c6c5fe" d="M581.96,-765.75C581.96,-765.75 422.04,-765.75 422.04,-765.75 418.08,-765.75 414.12,-761.79 414.12,-757.83 414.12,-757.83 414.12,-749.92 414.12,-749.92 414.12,-745.96 418.08,-742 422.04,-742 422.04,-742 581.96,-742 581.96,-742 585.92,-742 589.88,-745.96 589.88,-749.92 589.88,-749.92 589.88,-757.83 589.88,-757.83 589.88,-761.79 585.92,-765.75 581.96,-765.75"/>
<text text-anchor="middle" x="502" y="-748.45" font-family="Arial" font-size="14.00" fill="#c6c5fe">components/Searchbar.jsx</text>
</g>
<!-- App.jsx&#45;&gt;components/Searchbar.jsx -->
<g id="edge5" class="edge">
<title>App.jsx&#45;&gt;components/Searchbar.jsx</title>
<path fill="none" stroke="#757575" d="M37.84,-667.1C47.97,-684.18 68.92,-714.56 96.25,-727.88 194.09,-775.53 321.33,-775.12 406.8,-767.31"/>
<polygon fill="#757575" stroke="#757575" points="406.93,-770.81 416.55,-766.36 406.25,-763.85 406.93,-770.81"/>
</g>
<!-- hooks/useCurrentTermId.js -->
<g id="node7" class="node">
<title>hooks/useCurrentTermId.js</title>
<path fill="none" stroke="#cfffac" d="M297.08,-479.75C297.08,-479.75 134.92,-479.75 134.92,-479.75 130.96,-479.75 127,-475.79 127,-471.83 127,-471.83 127,-463.92 127,-463.92 127,-459.96 130.96,-456 134.92,-456 134.92,-456 297.08,-456 297.08,-456 301.04,-456 305,-459.96 305,-463.92 305,-463.92 305,-471.83 305,-471.83 305,-475.79 301.04,-479.75 297.08,-479.75"/>
<text text-anchor="middle" x="216" y="-462.45" font-family="Arial" font-size="14.00" fill="#cfffac">hooks/useCurrentTermId.js</text>
</g>
<!-- App.jsx&#45;&gt;hooks/useCurrentTermId.js -->
<g id="edge6" class="edge">
<title>App.jsx&#45;&gt;hooks/useCurrentTermId.js</title>
<path fill="none" stroke="#757575" d="M32,-642.52C34.92,-611.34 47.14,-529.08 96.25,-488.88 102.18,-484.02 108.85,-480.12 115.91,-477.01"/>
<polygon fill="#757575" stroke="#757575" points="116.99,-480.35 125.1,-473.53 114.51,-473.8 116.99,-480.35"/>
</g>
<!-- hooks/useRefreshToken.js -->
<g id="node8" class="node">
<title>hooks/useRefreshToken.js</title>
<path fill="none" stroke="#cfffac" d="M295.21,-437.75C295.21,-437.75 136.79,-437.75 136.79,-437.75 132.83,-437.75 128.88,-433.79 128.88,-429.83 128.88,-429.83 128.88,-421.92 128.88,-421.92 128.88,-417.96 132.83,-414 136.79,-414 136.79,-414 295.21,-414 295.21,-414 299.17,-414 303.12,-417.96 303.12,-421.92 303.12,-421.92 303.12,-429.83 303.12,-429.83 303.12,-433.79 299.17,-437.75 295.21,-437.75"/>
<text text-anchor="middle" x="216" y="-420.45" font-family="Arial" font-size="14.00" fill="#cfffac">hooks/useRefreshToken.js</text>
</g>
<!-- App.jsx&#45;&gt;hooks/useRefreshToken.js -->
<g id="edge7" class="edge">
<title>App.jsx&#45;&gt;hooks/useRefreshToken.js</title>
<path fill="none" stroke="#757575" d="M30.9,-642.74C30.93,-606.71 36.29,-499.59 96.25,-446.88 102.65,-441.25 110.01,-436.89 117.87,-433.52"/>
<polygon fill="#757575" stroke="#757575" points="118.83,-436.89 127.02,-430.17 116.43,-430.32 118.83,-436.89"/>
</g>
<!-- pages/Admin.jsx -->
<g id="node9" class="node">
<title>pages/Admin.jsx</title>
<path fill="none" stroke="#c6c5fe" d="M265.96,-563.75C265.96,-563.75 166.04,-563.75 166.04,-563.75 162.08,-563.75 158.12,-559.79 158.12,-555.83 158.12,-555.83 158.12,-547.92 158.12,-547.92 158.12,-543.96 162.08,-540 166.04,-540 166.04,-540 265.96,-540 265.96,-540 269.92,-540 273.88,-543.96 273.88,-547.92 273.88,-547.92 273.88,-555.83 273.88,-555.83 273.88,-559.79 269.92,-563.75 265.96,-563.75"/>
<text text-anchor="middle" x="216" y="-546.45" font-family="Arial" font-size="14.00" fill="#c6c5fe">pages/Admin.jsx</text>
</g>
<!-- App.jsx&#45;&gt;pages/Admin.jsx -->
<g id="edge8" class="edge">
<title>App.jsx&#45;&gt;pages/Admin.jsx</title>
<path fill="none" stroke="#757575" d="M42.66,-642.82C54.99,-630.47 75.57,-611.37 96.25,-598.88 117.19,-586.22 142.15,-575.74 163.76,-567.92"/>
<polygon fill="#757575" stroke="#757575" points="164.69,-571.3 172.97,-564.68 162.37,-564.69 164.69,-571.3"/>
</g>
<!-- pages/AdminElectronicResources.jsx -->
<g id="node10" class="node">
<title>pages/AdminElectronicResources.jsx</title>
<path fill="none" stroke="#c6c5fe" d="M613.83,-475.75C613.83,-475.75 390.17,-475.75 390.17,-475.75 386.21,-475.75 382.25,-471.79 382.25,-467.83 382.25,-467.83 382.25,-459.92 382.25,-459.92 382.25,-455.96 386.21,-452 390.17,-452 390.17,-452 613.83,-452 613.83,-452 617.79,-452 621.75,-455.96 621.75,-459.92 621.75,-459.92 621.75,-467.83 621.75,-467.83 621.75,-471.79 617.79,-475.75 613.83,-475.75"/>
<text text-anchor="middle" x="502" y="-458.45" font-family="Arial" font-size="14.00" fill="#c6c5fe">pages/AdminElectronicResources.jsx</text>
</g>
<!-- App.jsx&#45;&gt;pages/AdminElectronicResources.jsx -->
<g id="edge9" class="edge">
<title>App.jsx&#45;&gt;pages/AdminElectronicResources.jsx</title>
<path fill="none" stroke="#757575" d="M60.51,-644.97C71.65,-641.33 84.49,-637.26 96.25,-633.88 201.79,-603.45 242.44,-630.83 335.75,-572.88 356.64,-559.9 352.48,-546.15 371.75,-530.88 398.21,-509.9 432.25,-492.57 458.76,-480.8"/>
<polygon fill="#757575" stroke="#757575" points="460.07,-484.04 467.86,-476.85 457.29,-477.62 460.07,-484.04"/>
</g>
<!-- pages/CourseRecords.jsx -->
<g id="node11" class="node">
<title>pages/CourseRecords.jsx</title>
<path fill="none" stroke="#c6c5fe" d="M579.33,-971.75C579.33,-971.75 424.67,-971.75 424.67,-971.75 420.71,-971.75 416.75,-967.79 416.75,-963.83 416.75,-963.83 416.75,-955.92 416.75,-955.92 416.75,-951.96 420.71,-948 424.67,-948 424.67,-948 579.33,-948 579.33,-948 583.29,-948 587.25,-951.96 587.25,-955.92 587.25,-955.92 587.25,-963.83 587.25,-963.83 587.25,-967.79 583.29,-971.75 579.33,-971.75"/>
<text text-anchor="middle" x="502" y="-954.45" font-family="Arial" font-size="14.00" fill="#c6c5fe">pages/CourseRecords.jsx</text>
</g>
<!-- App.jsx&#45;&gt;pages/CourseRecords.jsx -->
<g id="edge10" class="edge">
<title>App.jsx&#45;&gt;pages/CourseRecords.jsx</title>
<path fill="none" stroke="#757575" d="M30.98,-667.22C31.3,-702.86 37.47,-806.55 96.25,-856.88 178.11,-926.97 242.28,-841.21 335.75,-894.88 357.66,-907.46 349.86,-926.25 371.75,-938.88 382.08,-944.83 393.6,-949.23 405.39,-952.45"/>
<polygon fill="#757575" stroke="#757575" points="404.26,-955.78 414.8,-954.74 405.91,-948.98 404.26,-955.78"/>
</g>
<!-- pages/Home.jsx -->
<g id="node12" class="node">
<title>pages/Home.jsx</title>
<path fill="none" stroke="#c6c5fe" d="M264.83,-209.75C264.83,-209.75 167.17,-209.75 167.17,-209.75 163.21,-209.75 159.25,-205.79 159.25,-201.83 159.25,-201.83 159.25,-193.92 159.25,-193.92 159.25,-189.96 163.21,-186 167.17,-186 167.17,-186 264.83,-186 264.83,-186 268.79,-186 272.75,-189.96 272.75,-193.92 272.75,-193.92 272.75,-201.83 272.75,-201.83 272.75,-205.79 268.79,-209.75 264.83,-209.75"/>
<text text-anchor="middle" x="216" y="-192.45" font-family="Arial" font-size="14.00" fill="#c6c5fe">pages/Home.jsx</text>
</g>
<!-- App.jsx&#45;&gt;pages/Home.jsx -->
<g id="edge11" class="edge">
<title>App.jsx&#45;&gt;pages/Home.jsx</title>
<path fill="none" stroke="#757575" d="M33.14,-642.54C39.43,-605.51 60.46,-492.48 96.25,-404.88 125.61,-333.01 175.61,-255.44 200.31,-219.03"/>
<polygon fill="#757575" stroke="#757575" points="202.95,-221.36 205.71,-211.14 197.17,-217.41 202.95,-221.36"/>
</g>
<!-- pages/Search.jsx -->
<g id="node13" class="node">
<title>pages/Search.jsx</title>
<path fill="none" stroke="#c6c5fe" d="M267.83,-666.75C267.83,-666.75 164.17,-666.75 164.17,-666.75 160.21,-666.75 156.25,-662.79 156.25,-658.83 156.25,-658.83 156.25,-650.92 156.25,-650.92 156.25,-646.96 160.21,-643 164.17,-643 164.17,-643 267.83,-643 267.83,-643 271.79,-643 275.75,-646.96 275.75,-650.92 275.75,-650.92 275.75,-658.83 275.75,-658.83 275.75,-662.79 271.79,-666.75 267.83,-666.75"/>
<text text-anchor="middle" x="216" y="-649.45" font-family="Arial" font-size="14.00" fill="#c6c5fe">pages/Search.jsx</text>
</g>
<!-- App.jsx&#45;&gt;pages/Search.jsx -->
<g id="edge12" class="edge">
<title>App.jsx&#45;&gt;pages/Search.jsx</title>
<path fill="none" stroke="#757575" d="M60.67,-654.88C83.25,-654.88 115.35,-654.88 144.43,-654.88"/>
<polygon fill="#757575" stroke="#757575" points="144.3,-658.38 154.3,-654.88 144.3,-651.38 144.3,-658.38"/>
</g>
<!-- store/searchStore.js -->
<g id="node14" class="node">
<title>store/searchStore.js</title>
<path fill="none" stroke="#cfffac" d="M926.46,-761.75C926.46,-761.75 806.29,-761.75 806.29,-761.75 802.33,-761.75 798.38,-757.79 798.38,-753.83 798.38,-753.83 798.38,-745.92 798.38,-745.92 798.38,-741.96 802.33,-738 806.29,-738 806.29,-738 926.46,-738 926.46,-738 930.42,-738 934.38,-741.96 934.38,-745.92 934.38,-745.92 934.38,-753.83 934.38,-753.83 934.38,-757.79 930.42,-761.75 926.46,-761.75"/>
<text text-anchor="middle" x="866.38" y="-744.45" font-family="Arial" font-size="14.00" fill="#cfffac">store/searchStore.js</text>
</g>
<!-- App.jsx&#45;&gt;store/searchStore.js -->
<g id="edge13" class="edge">
<title>App.jsx&#45;&gt;store/searchStore.js</title>
<path fill="none" stroke="#757575" d="M60.59,-665.87C71.63,-669.59 84.38,-673.42 96.25,-675.88 162.68,-689.61 604.36,-727.84 786.78,-743.28"/>
<polygon fill="#757575" stroke="#757575" points="786.38,-746.76 796.64,-744.12 786.97,-739.79 786.38,-746.76"/>
</g>
<!-- Header.css -->
<g id="node15" class="node">
<title>Header.css</title>
<path fill="none" stroke="#cfffac" d="M535.83,-887.75C535.83,-887.75 468.17,-887.75 468.17,-887.75 464.21,-887.75 460.25,-883.79 460.25,-879.83 460.25,-879.83 460.25,-871.92 460.25,-871.92 460.25,-867.96 464.21,-864 468.17,-864 468.17,-864 535.83,-864 535.83,-864 539.79,-864 543.75,-867.96 543.75,-871.92 543.75,-871.92 543.75,-879.83 543.75,-879.83 543.75,-883.79 539.79,-887.75 535.83,-887.75"/>
<text text-anchor="middle" x="502" y="-870.45" font-family="Arial" font-size="14.00" fill="#cfffac">Header.css</text>
</g>
<!-- components/Header.jsx&#45;&gt;Header.css -->
<g id="edge23" class="edge">
<title>components/Header.jsx&#45;&gt;Header.css</title>
<path fill="none" stroke="#757575" d="M295.24,-800.11C309.3,-803.32 323.39,-808.02 335.75,-814.88 356.66,-826.48 350.75,-843.42 371.75,-854.88 395.09,-867.61 424.09,-873.09 448.7,-875.29"/>
<polygon fill="#757575" stroke="#757575" points="448.29,-878.77 458.51,-876 448.79,-871.79 448.29,-878.77"/>
</g>
<!-- store/customizationStore.js -->
<g id="node23" class="node">
<title>store/customizationStore.js</title>
<path fill="none" stroke="#cfffac" d="M947.83,-845.75C947.83,-845.75 784.92,-845.75 784.92,-845.75 780.96,-845.75 777,-841.79 777,-837.83 777,-837.83 777,-829.92 777,-829.92 777,-825.96 780.96,-822 784.92,-822 784.92,-822 947.83,-822 947.83,-822 951.79,-822 955.75,-825.96 955.75,-829.92 955.75,-829.92 955.75,-837.83 955.75,-837.83 955.75,-841.79 951.79,-845.75 947.83,-845.75"/>
<text text-anchor="middle" x="866.38" y="-828.45" font-family="Arial" font-size="14.00" fill="#cfffac">store/customizationStore.js</text>
</g>
<!-- components/Header.jsx&#45;&gt;store/customizationStore.js -->
<g id="edge25" class="edge">
<title>components/Header.jsx&#45;&gt;store/customizationStore.js</title>
<path fill="none" stroke="#757575" d="M295.12,-796.42C378.63,-799.38 514.89,-804.91 632.25,-812.88 675.89,-815.84 724.04,-820.02 765.2,-823.87"/>
<polygon fill="#757575" stroke="#757575" points="764.82,-827.35 775.1,-824.81 765.48,-820.39 764.82,-827.35"/>
</g>
<!-- components/StaffLogin.jsx -->
<g id="node30" class="node">
<title>components/StaffLogin.jsx</title>
<path fill="none" stroke="#cfffac" d="M581.58,-929.75C581.58,-929.75 422.42,-929.75 422.42,-929.75 418.46,-929.75 414.5,-925.79 414.5,-921.83 414.5,-921.83 414.5,-913.92 414.5,-913.92 414.5,-909.96 418.46,-906 422.42,-906 422.42,-906 581.58,-906 581.58,-906 585.54,-906 589.5,-909.96 589.5,-913.92 589.5,-913.92 589.5,-921.83 589.5,-921.83 589.5,-925.79 585.54,-929.75 581.58,-929.75"/>
<text text-anchor="middle" x="502" y="-912.45" font-family="Arial" font-size="14.00" fill="#cfffac">components/StaffLogin.jsx</text>
</g>
<!-- components/Header.jsx&#45;&gt;components/StaffLogin.jsx -->
<g id="edge24" class="edge">
<title>components/Header.jsx&#45;&gt;components/StaffLogin.jsx</title>
<path fill="none" stroke="#757575" d="M295.1,-796.54C309.72,-799.98 324.06,-805.69 335.75,-814.88 367.04,-839.47 340.28,-872.5 371.75,-896.88 381.01,-904.05 391.78,-909.19 403.08,-912.81"/>
<polygon fill="#757575" stroke="#757575" points="402.01,-916.15 412.58,-915.45 403.87,-909.4 402.01,-916.15"/>
</g>
<!-- components/ProtectedRoutePage.jsx&#45;&gt;components/StaffLogin.jsx -->
<g id="edge26" class="edge">
<title>components/ProtectedRoutePage.jsx&#45;&gt;components/StaffLogin.jsx</title>
<path fill="none" stroke="#757575" d="M301.19,-848.16C313.18,-851.65 325.06,-856.13 335.75,-861.88 355.4,-872.44 351.82,-886.84 371.75,-896.88 381.57,-901.82 392.3,-905.64 403.24,-908.6"/>
<polygon fill="#757575" stroke="#757575" points="402.2,-911.95 412.75,-910.91 403.86,-905.14 402.2,-911.95"/>
</g>
<!-- components/Searchbar.jsx&#45;&gt;store/searchStore.js -->
<g id="edge35" class="edge">
<title>components/Searchbar.jsx&#45;&gt;store/searchStore.js</title>
<path fill="none" stroke="#757575" d="M590.26,-752.91C650.14,-752.25 728.95,-751.38 786.86,-750.74"/>
<polygon fill="#757575" stroke="#757575" points="786.68,-754.24 796.64,-750.63 786.6,-747.24 786.68,-754.24"/>
</g>
<!-- Searchbar.css -->
<g id="node17" class="node">
<title>Searchbar.css</title>
<path fill="none" stroke="#cfffac" d="M909.21,-719.75C909.21,-719.75 823.54,-719.75 823.54,-719.75 819.58,-719.75 815.62,-715.79 815.62,-711.83 815.62,-711.83 815.62,-703.92 815.62,-703.92 815.62,-699.96 819.58,-696 823.54,-696 823.54,-696 909.21,-696 909.21,-696 913.17,-696 917.12,-699.96 917.12,-703.92 917.12,-703.92 917.12,-711.83 917.12,-711.83 917.12,-715.79 913.17,-719.75 909.21,-719.75"/>
<text text-anchor="middle" x="866.38" y="-702.45" font-family="Arial" font-size="14.00" fill="#cfffac">Searchbar.css</text>
</g>
<!-- components/Searchbar.jsx&#45;&gt;Searchbar.css -->
<g id="edge33" class="edge">
<title>components/Searchbar.jsx&#45;&gt;Searchbar.css</title>
<path fill="none" stroke="#757575" d="M579.83,-741.53C607.65,-737.25 639.33,-732.6 668.25,-728.88 713.67,-723.02 765.12,-717.58 804.07,-713.7"/>
<polygon fill="#757575" stroke="#757575" points="804.37,-717.19 813.97,-712.73 803.68,-710.23 804.37,-717.19"/>
</g>
<!-- components/Searchbar.jsx&#45;&gt;store/customizationStore.js -->
<g id="edge34" class="edge">
<title>components/Searchbar.jsx&#45;&gt;store/customizationStore.js</title>
<path fill="none" stroke="#757575" d="M590.36,-764.7C604.81,-768.37 619.29,-773.29 632.25,-779.88 651.6,-789.71 648.47,-803.94 668.25,-812.88 698.27,-826.43 733.4,-832.78 765.62,-835.43"/>
<polygon fill="#757575" stroke="#757575" points="765.16,-838.9 775.38,-836.11 765.64,-831.92 765.16,-838.9"/>
</g>
<!-- components/AdminCourseList.jsx -->
<g id="node18" class="node">
<title>components/AdminCourseList.jsx</title>
<path fill="none" stroke="#c6c5fe" d="M602.96,-203.75C602.96,-203.75 401.04,-203.75 401.04,-203.75 397.08,-203.75 393.12,-199.79 393.12,-195.83 393.12,-195.83 393.12,-187.92 393.12,-187.92 393.12,-183.96 397.08,-180 401.04,-180 401.04,-180 602.96,-180 602.96,-180 606.92,-180 610.88,-183.96 610.88,-187.92 610.88,-187.92 610.88,-195.83 610.88,-195.83 610.88,-199.79 606.92,-203.75 602.96,-203.75"/>
<text text-anchor="middle" x="502" y="-186.45" font-family="Arial" font-size="14.00" fill="#c6c5fe">components/AdminCourseList.jsx</text>
</g>
<!-- pages/Admin.jsx&#45;&gt;components/AdminCourseList.jsx -->
<g id="edge61" class="edge">
<title>pages/Admin.jsx&#45;&gt;components/AdminCourseList.jsx</title>
<path fill="none" stroke="#757575" d="M274.32,-555.45C296.46,-553.69 320.17,-547.4 335.75,-530.88 430.3,-430.6 280.27,-325.95 371.75,-222.88 376.26,-217.79 381.45,-213.46 387.1,-209.79"/>
<polygon fill="#757575" stroke="#757575" points="388.69,-212.91 395.68,-204.95 385.25,-206.82 388.69,-212.91"/>
</g>
<!-- components/AdminSidebar.jsx -->
<g id="node21" class="node">
<title>components/AdminSidebar.jsx</title>
<path fill="none" stroke="#c6c5fe" d="M593.58,-563.75C593.58,-563.75 410.42,-563.75 410.42,-563.75 406.46,-563.75 402.5,-559.79 402.5,-555.83 402.5,-555.83 402.5,-547.92 402.5,-547.92 402.5,-543.96 406.46,-540 410.42,-540 410.42,-540 593.58,-540 593.58,-540 597.54,-540 601.5,-543.96 601.5,-547.92 601.5,-547.92 601.5,-555.83 601.5,-555.83 601.5,-559.79 597.54,-563.75 593.58,-563.75"/>
<text text-anchor="middle" x="502" y="-546.45" font-family="Arial" font-size="14.00" fill="#c6c5fe">components/AdminSidebar.jsx</text>
</g>
<!-- pages/Admin.jsx&#45;&gt;components/AdminSidebar.jsx -->
<g id="edge62" class="edge">
<title>pages/Admin.jsx&#45;&gt;components/AdminSidebar.jsx</title>
<path fill="none" stroke="#757575" d="M274.13,-551.88C307.59,-551.88 350.99,-551.88 390.85,-551.88"/>
<polygon fill="#757575" stroke="#757575" points="390.75,-555.38 400.75,-551.88 390.75,-548.38 390.75,-555.38"/>
</g>
<!-- store/adminSearchStore.js -->
<g id="node22" class="node">
<title>store/adminSearchStore.js</title>
<path fill="none" stroke="#cfffac" d="M946.33,-677.75C946.33,-677.75 786.42,-677.75 786.42,-677.75 782.46,-677.75 778.5,-673.79 778.5,-669.83 778.5,-669.83 778.5,-661.92 778.5,-661.92 778.5,-657.96 782.46,-654 786.42,-654 786.42,-654 946.33,-654 946.33,-654 950.29,-654 954.25,-657.96 954.25,-661.92 954.25,-661.92 954.25,-669.83 954.25,-669.83 954.25,-673.79 950.29,-677.75 946.33,-677.75"/>
<text text-anchor="middle" x="866.38" y="-660.45" font-family="Arial" font-size="14.00" fill="#cfffac">store/adminSearchStore.js</text>
</g>
<!-- pages/Admin.jsx&#45;&gt;store/adminSearchStore.js -->
<g id="edge67" class="edge">
<title>pages/Admin.jsx&#45;&gt;store/adminSearchStore.js</title>
<path fill="none" stroke="#757575" d="M274.14,-542.25C303.26,-537.82 339.29,-533.07 371.75,-530.88 487.26,-523.07 538.87,-462.44 632.25,-530.88 675.11,-562.28 627.12,-611.24 668.25,-644.88 695.54,-667.19 732.54,-675.01 767.12,-676.36"/>
<polygon fill="#757575" stroke="#757575" points="766.66,-679.86 776.73,-676.56 766.8,-672.86 766.66,-679.86"/>
</g>
<!-- components/ResourceListTable.jsx -->
<g id="node31" class="node">
<title>components/ResourceListTable.jsx</title>
<path fill="none" stroke="#c6c5fe" d="M606.71,-255.75C606.71,-255.75 397.29,-255.75 397.29,-255.75 393.33,-255.75 389.38,-251.79 389.38,-247.83 389.38,-247.83 389.38,-239.92 389.38,-239.92 389.38,-235.96 393.33,-232 397.29,-232 397.29,-232 606.71,-232 606.71,-232 610.67,-232 614.62,-235.96 614.62,-239.92 614.62,-239.92 614.62,-247.83 614.62,-247.83 614.62,-251.79 610.67,-255.75 606.71,-255.75"/>
<text text-anchor="middle" x="502" y="-238.45" font-family="Arial" font-size="14.00" fill="#c6c5fe">components/ResourceListTable.jsx</text>
</g>
<!-- pages/Admin.jsx&#45;&gt;components/ResourceListTable.jsx -->
<g id="edge63" class="edge">
<title>pages/Admin.jsx&#45;&gt;components/ResourceListTable.jsx</title>
<path fill="none" stroke="#757575" d="M274.35,-552.98C295.59,-550.69 318.64,-544.68 335.75,-530.88 368.64,-504.34 352.16,-480.31 371.75,-442.88 407.37,-374.81 459.67,-300.32 485.46,-264.88"/>
<polygon fill="#757575" stroke="#757575" points="488.01,-267.31 491.1,-257.18 482.37,-263.18 488.01,-267.31"/>
</g>
<!-- services/admin/adminResourceService.js -->
<g id="node34" class="node">
<title>services/admin/adminResourceService.js</title>
<path fill="none" stroke="#c6c5fe" d="M990.58,-101.75C990.58,-101.75 742.17,-101.75 742.17,-101.75 738.21,-101.75 734.25,-97.79 734.25,-93.83 734.25,-93.83 734.25,-85.92 734.25,-85.92 734.25,-81.96 738.21,-78 742.17,-78 742.17,-78 990.58,-78 990.58,-78 994.54,-78 998.5,-81.96 998.5,-85.92 998.5,-85.92 998.5,-93.83 998.5,-93.83 998.5,-97.79 994.54,-101.75 990.58,-101.75"/>
<text text-anchor="middle" x="866.38" y="-84.45" font-family="Arial" font-size="14.00" fill="#c6c5fe">services/admin/adminResourceService.js</text>
</g>
<!-- pages/Admin.jsx&#45;&gt;services/admin/adminResourceService.js -->
<g id="edge66" class="edge">
<title>pages/Admin.jsx&#45;&gt;services/admin/adminResourceService.js</title>
<path fill="none" stroke="#757575" d="M274.27,-555.72C296.54,-554.03 320.36,-547.72 335.75,-530.88 399.24,-461.4 303.66,-173.86 371.75,-108.88 422.5,-60.44 610,-66.15 738.72,-76.59"/>
<polygon fill="#757575" stroke="#757575" points="738.06,-80.04 748.32,-77.38 738.64,-73.07 738.06,-80.04"/>
</g>
<!-- components/ResourceSearchSidebar.jsx -->
<g id="node35" class="node">
<title>components/ResourceSearchSidebar.jsx</title>
<path fill="none" stroke="#c6c5fe" d="M624.33,-141.75C624.33,-141.75 379.67,-141.75 379.67,-141.75 375.71,-141.75 371.75,-137.79 371.75,-133.83 371.75,-133.83 371.75,-125.92 371.75,-125.92 371.75,-121.96 375.71,-118 379.67,-118 379.67,-118 624.33,-118 624.33,-118 628.29,-118 632.25,-121.96 632.25,-125.92 632.25,-125.92 632.25,-133.83 632.25,-133.83 632.25,-137.79 628.29,-141.75 624.33,-141.75"/>
<text text-anchor="middle" x="502" y="-124.45" font-family="Arial" font-size="14.00" fill="#c6c5fe">components/ResourceSearchSidebar.jsx</text>
</g>
<!-- pages/Admin.jsx&#45;&gt;components/ResourceSearchSidebar.jsx -->
<g id="edge64" class="edge">
<title>pages/Admin.jsx&#45;&gt;components/ResourceSearchSidebar.jsx</title>
<path fill="none" stroke="#757575" d="M274.15,-555.61C296.4,-553.9 320.23,-547.61 335.75,-530.88 390.42,-471.92 321.09,-233.31 371.75,-170.88 380.27,-160.38 391.47,-152.53 403.72,-146.66"/>
<polygon fill="#757575" stroke="#757575" points="405,-149.92 412.82,-142.78 402.25,-143.48 405,-149.92"/>
</g>
<!-- store/resourceSearchStore.js -->
<g id="node37" class="node">
<title>store/resourceSearchStore.js</title>
<path fill="none" stroke="#cfffac" d="M953.83,-59.75C953.83,-59.75 778.92,-59.75 778.92,-59.75 774.96,-59.75 771,-55.79 771,-51.83 771,-51.83 771,-43.92 771,-43.92 771,-39.96 774.96,-36 778.92,-36 778.92,-36 953.83,-36 953.83,-36 957.79,-36 961.75,-39.96 961.75,-43.92 961.75,-43.92 961.75,-51.83 961.75,-51.83 961.75,-55.79 957.79,-59.75 953.83,-59.75"/>
<text text-anchor="middle" x="866.38" y="-42.45" font-family="Arial" font-size="14.00" fill="#cfffac">store/resourceSearchStore.js</text>
</g>
<!-- pages/Admin.jsx&#45;&gt;store/resourceSearchStore.js -->
<g id="edge69" class="edge">
<title>pages/Admin.jsx&#45;&gt;store/resourceSearchStore.js</title>
<path fill="none" stroke="#757575" d="M274.34,-555.78C296.62,-554.1 320.42,-547.78 335.75,-530.88 405.37,-454.1 296.98,-137.65 371.75,-65.88 399,-39.72 622.51,-41.04 759.26,-44.4"/>
<polygon fill="#757575" stroke="#757575" points="758.99,-47.9 769.07,-44.65 759.16,-40.9 758.99,-47.9"/>
</g>
<!-- hooks/useBuildQuery.js -->
<g id="node58" class="node">
<title>hooks/useBuildQuery.js</title>
<path fill="none" stroke="#c6c5fe" d="M572.96,-605.75C572.96,-605.75 431.04,-605.75 431.04,-605.75 427.08,-605.75 423.12,-601.79 423.12,-597.83 423.12,-597.83 423.12,-589.92 423.12,-589.92 423.12,-585.96 427.08,-582 431.04,-582 431.04,-582 572.96,-582 572.96,-582 576.92,-582 580.88,-585.96 580.88,-589.92 580.88,-589.92 580.88,-597.83 580.88,-597.83 580.88,-601.79 576.92,-605.75 572.96,-605.75"/>
<text text-anchor="middle" x="502" y="-588.45" font-family="Arial" font-size="14.00" fill="#c6c5fe">hooks/useBuildQuery.js</text>
</g>
<!-- pages/Admin.jsx&#45;&gt;hooks/useBuildQuery.js -->
<g id="edge65" class="edge">
<title>pages/Admin.jsx&#45;&gt;hooks/useBuildQuery.js</title>
<path fill="none" stroke="#757575" d="M274.13,-560.32C313.48,-566.14 366.56,-573.99 411.48,-580.64"/>
<polygon fill="#757575" stroke="#757575" points="410.81,-584.07 421.21,-582.08 411.83,-577.15 410.81,-584.07"/>
</g>
<!-- store/index.js -->
<g id="node59" class="node">
<title>store/index.js</title>
<path fill="none" stroke="#cfffac" d="M541.83,-647.75C541.83,-647.75 462.17,-647.75 462.17,-647.75 458.21,-647.75 454.25,-643.79 454.25,-639.83 454.25,-639.83 454.25,-631.92 454.25,-631.92 454.25,-627.96 458.21,-624 462.17,-624 462.17,-624 541.83,-624 541.83,-624 545.79,-624 549.75,-627.96 549.75,-631.92 549.75,-631.92 549.75,-639.83 549.75,-639.83 549.75,-643.79 545.79,-647.75 541.83,-647.75"/>
<text text-anchor="middle" x="502" y="-630.45" font-family="Arial" font-size="14.00" fill="#cfffac">store/index.js</text>
</g>
<!-- pages/Admin.jsx&#45;&gt;store/index.js -->
<g id="edge68" class="edge">
<title>pages/Admin.jsx&#45;&gt;store/index.js</title>
<path fill="none" stroke="#757575" d="M242.12,-564.16C272.23,-578.41 324.55,-601.62 371.75,-614.88 394.49,-621.26 420.06,-625.92 442.41,-629.21"/>
<polygon fill="#757575" stroke="#757575" points="441.89,-632.67 452.28,-630.59 442.87,-625.74 441.89,-632.67"/>
</g>
<!-- components/CourseRecords/api.js -->
<g id="node29" class="node">
<title>components/CourseRecords/api.js</title>
<path fill="none" stroke="#cfffac" d="M969.96,-803.75C969.96,-803.75 762.79,-803.75 762.79,-803.75 758.83,-803.75 754.88,-799.79 754.88,-795.83 754.88,-795.83 754.88,-787.92 754.88,-787.92 754.88,-783.96 758.83,-780 762.79,-780 762.79,-780 969.96,-780 969.96,-780 973.92,-780 977.88,-783.96 977.88,-787.92 977.88,-787.92 977.88,-795.83 977.88,-795.83 977.88,-799.79 973.92,-803.75 969.96,-803.75"/>
<text text-anchor="middle" x="866.38" y="-786.45" font-family="Arial" font-size="14.00" fill="#cfffac">components/CourseRecords/api.js</text>
</g>
<!-- pages/AdminElectronicResources.jsx&#45;&gt;components/CourseRecords/api.js -->
<g id="edge70" class="edge">
<title>pages/AdminElectronicResources.jsx&#45;&gt;components/CourseRecords/api.js</title>
<path fill="none" stroke="#757575" d="M549.35,-476.14C577.8,-486.13 612.48,-503.22 632.25,-530.88 694.98,-618.61 590.37,-696.25 668.25,-770.88 697.2,-798.61 740.63,-805.46 779.36,-804.67"/>
<polygon fill="#757575" stroke="#757575" points="779.3,-808.18 789.16,-804.29 779.03,-801.18 779.3,-808.18"/>
</g>
<!-- hooks/admin/useAdminModal.js -->
<g id="node33" class="node">
<title>hooks/admin/useAdminModal.js</title>
<path fill="none" stroke="#cfffac" d="M962.83,-265.75C962.83,-265.75 769.92,-265.75 769.92,-265.75 765.96,-265.75 762,-261.79 762,-257.83 762,-257.83 762,-249.92 762,-249.92 762,-245.96 765.96,-242 769.92,-242 769.92,-242 962.83,-242 962.83,-242 966.79,-242 970.75,-245.96 970.75,-249.92 970.75,-249.92 970.75,-257.83 970.75,-257.83 970.75,-261.79 966.79,-265.75 962.83,-265.75"/>
<text text-anchor="middle" x="866.38" y="-248.45" font-family="Arial" font-size="14.00" fill="#cfffac">hooks/admin/useAdminModal.js</text>
</g>
<!-- pages/AdminElectronicResources.jsx&#45;&gt;hooks/admin/useAdminModal.js -->
<g id="edge77" class="edge">
<title>pages/AdminElectronicResources.jsx&#45;&gt;hooks/admin/useAdminModal.js</title>
<path fill="none" stroke="#757575" d="M509.64,-451.78C528.96,-417.88 588.87,-321.72 668.25,-279.88 693.25,-266.7 722.43,-259.29 750.55,-255.31"/>
<polygon fill="#757575" stroke="#757575" points="750.7,-258.82 760.18,-254.09 749.82,-251.87 750.7,-258.82"/>
</g>
<!-- components/admin/AdminResourceTable.jsx -->
<g id="node38" class="node">
<title>components/admin/AdminResourceTable.jsx</title>
<path fill="none" stroke="#cfffac" d="M1000.71,-551.75C1000.71,-551.75 732.04,-551.75 732.04,-551.75 728.08,-551.75 724.12,-547.79 724.12,-543.83 724.12,-543.83 724.12,-535.92 724.12,-535.92 724.12,-531.96 728.08,-528 732.04,-528 732.04,-528 1000.71,-528 1000.71,-528 1004.67,-528 1008.62,-531.96 1008.62,-535.92 1008.62,-535.92 1008.62,-543.83 1008.62,-543.83 1008.62,-547.79 1004.67,-551.75 1000.71,-551.75"/>
<text text-anchor="middle" x="866.38" y="-534.45" font-family="Arial" font-size="14.00" fill="#cfffac">components/admin/AdminResourceTable.jsx</text>
</g>
<!-- pages/AdminElectronicResources.jsx&#45;&gt;components/admin/AdminResourceTable.jsx -->
<g id="edge71" class="edge">
<title>pages/AdminElectronicResources.jsx&#45;&gt;components/admin/AdminResourceTable.jsx</title>
<path fill="none" stroke="#757575" d="M563.63,-476.23C585.67,-481.65 610.49,-488.86 632.25,-497.88 649.36,-504.96 650.65,-513.1 668.25,-518.88 682.46,-523.54 697.52,-527.22 712.75,-530.13"/>
<polygon fill="#757575" stroke="#757575" points="711.9,-533.53 722.36,-531.84 713.13,-526.64 711.9,-533.53"/>
</g>
<!-- services/admin/adminCourseService.js -->
<g id="node44" class="node">
<title>services/admin/adminCourseService.js</title>
<path fill="none" stroke="#c6c5fe" d="M1749.71,-328.75C1749.71,-328.75 1515.54,-328.75 1515.54,-328.75 1511.58,-328.75 1507.62,-324.79 1507.62,-320.83 1507.62,-320.83 1507.62,-312.92 1507.62,-312.92 1507.62,-308.96 1511.58,-305 1515.54,-305 1515.54,-305 1749.71,-305 1749.71,-305 1753.67,-305 1757.62,-308.96 1757.62,-312.92 1757.62,-312.92 1757.62,-320.83 1757.62,-320.83 1757.62,-324.79 1753.67,-328.75 1749.71,-328.75"/>
<text text-anchor="middle" x="1632.62" y="-311.45" font-family="Arial" font-size="14.00" fill="#c6c5fe">services/admin/adminCourseService.js</text>
</g>
<!-- pages/AdminElectronicResources.jsx&#45;&gt;services/admin/adminCourseService.js -->
<g id="edge78" class="edge">
<title>pages/AdminElectronicResources.jsx&#45;&gt;services/admin/adminCourseService.js</title>
<path fill="none" stroke="#757575" d="M515.31,-451.67C541.05,-427.08 603.53,-372.14 668.25,-350.88 817.86,-301.71 1268.15,-306.46 1496.17,-312.42"/>
<polygon fill="#757575" stroke="#757575" points="1495.93,-315.91 1506.02,-312.68 1496.11,-308.92 1495.93,-315.91"/>
</g>
<!-- components/admin/modals/AdminEDSResourceModal.jsx -->
<g id="node53" class="node">
<title>components/admin/modals/AdminEDSResourceModal.jsx</title>
<path fill="none" stroke="#c6c5fe" d="M1041.21,-593.75C1041.21,-593.75 691.54,-593.75 691.54,-593.75 687.58,-593.75 683.62,-589.79 683.62,-585.83 683.62,-585.83 683.62,-577.92 683.62,-577.92 683.62,-573.96 687.58,-570 691.54,-570 691.54,-570 1041.21,-570 1041.21,-570 1045.17,-570 1049.12,-573.96 1049.12,-577.92 1049.12,-577.92 1049.12,-585.83 1049.12,-585.83 1049.12,-589.79 1045.17,-593.75 1041.21,-593.75"/>
<text text-anchor="middle" x="866.38" y="-576.45" font-family="Arial" font-size="14.00" fill="#c6c5fe">components/admin/modals/AdminEDSResourceModal.jsx</text>
</g>
<!-- pages/AdminElectronicResources.jsx&#45;&gt;components/admin/modals/AdminEDSResourceModal.jsx -->
<g id="edge72" class="edge">
<title>pages/AdminElectronicResources.jsx&#45;&gt;components/admin/modals/AdminEDSResourceModal.jsx</title>
<path fill="none" stroke="#757575" d="M588.81,-476.2C604.3,-481.17 619.55,-488.13 632.25,-497.88 657.84,-517.51 641.26,-543.23 668.25,-560.88 670.09,-562.08 671.95,-563.23 673.85,-564.34"/>
<polygon fill="#757575" stroke="#757575" points="671.74,-567.18 682.21,-568.8 675.04,-561 671.74,-567.18"/>
</g>
<!-- components/admin/modals/AdminHitchcockResourceModal.jsx -->
<g id="node54" class="node">
<title>components/admin/modals/AdminHitchcockResourceModal.jsx</title>
<path fill="none" stroke="#c6c5fe" d="M1056.58,-383.75C1056.58,-383.75 676.17,-383.75 676.17,-383.75 672.21,-383.75 668.25,-379.79 668.25,-375.83 668.25,-375.83 668.25,-367.92 668.25,-367.92 668.25,-363.96 672.21,-360 676.17,-360 676.17,-360 1056.58,-360 1056.58,-360 1060.54,-360 1064.5,-363.96 1064.5,-367.92 1064.5,-367.92 1064.5,-375.83 1064.5,-375.83 1064.5,-379.79 1060.54,-383.75 1056.58,-383.75"/>
<text text-anchor="middle" x="866.38" y="-366.45" font-family="Arial" font-size="14.00" fill="#c6c5fe">components/admin/modals/AdminHitchcockResourceModal.jsx</text>
</g>
<!-- pages/AdminElectronicResources.jsx&#45;&gt;components/admin/modals/AdminHitchcockResourceModal.jsx -->
<g id="edge73" class="edge">
<title>pages/AdminElectronicResources.jsx&#45;&gt;components/admin/modals/AdminHitchcockResourceModal.jsx</title>
<path fill="none" stroke="#757575" d="M525.49,-451.62C556.58,-435.29 614.93,-406.83 668.25,-392.88 677.68,-390.41 687.45,-388.23 697.35,-386.3"/>
<polygon fill="#757575" stroke="#757575" points="697.88,-389.76 707.08,-384.51 696.61,-382.88 697.88,-389.76"/>
</g>
<!-- components/admin/modals/AdminNewResourceModal.jsx -->
<g id="node55" class="node">
<title>components/admin/modals/AdminNewResourceModal.jsx</title>
<path fill="none" stroke="#c6c5fe" d="M1040.83,-635.75C1040.83,-635.75 691.92,-635.75 691.92,-635.75 687.96,-635.75 684,-631.79 684,-627.83 684,-627.83 684,-619.92 684,-619.92 684,-615.96 687.96,-612 691.92,-612 691.92,-612 1040.83,-612 1040.83,-612 1044.79,-612 1048.75,-615.96 1048.75,-619.92 1048.75,-619.92 1048.75,-627.83 1048.75,-627.83 1048.75,-631.79 1044.79,-635.75 1040.83,-635.75"/>
<text text-anchor="middle" x="866.38" y="-618.45" font-family="Arial" font-size="14.00" fill="#c6c5fe">components/admin/modals/AdminNewResourceModal.jsx</text>
</g>
<!-- pages/AdminElectronicResources.jsx&#45;&gt;components/admin/modals/AdminNewResourceModal.jsx -->
<g id="edge74" class="edge">
<title>pages/AdminElectronicResources.jsx&#45;&gt;components/admin/modals/AdminNewResourceModal.jsx</title>
<path fill="none" stroke="#757575" d="M595.69,-476.23C609.12,-481.26 621.88,-488.24 632.25,-497.88 668.38,-531.46 629.68,-572.11 668.25,-602.88 670.22,-604.44 672.23,-605.94 674.29,-607.37"/>
<polygon fill="#757575" stroke="#757575" points="671.98,-610.05 682.31,-612.39 675.69,-604.11 671.98,-610.05"/>
</g>
<!-- components/admin/modals/AdminReuseResourceModal.jsx -->
<g id="node56" class="node">
<title>components/admin/modals/AdminReuseResourceModal.jsx</title>
<path fill="none" stroke="#c6c5fe" d="M1046.83,-509.75C1046.83,-509.75 685.92,-509.75 685.92,-509.75 681.96,-509.75 678,-505.79 678,-501.83 678,-501.83 678,-493.92 678,-493.92 678,-489.96 681.96,-486 685.92,-486 685.92,-486 1046.83,-486 1046.83,-486 1050.79,-486 1054.75,-489.96 1054.75,-493.92 1054.75,-493.92 1054.75,-501.83 1054.75,-501.83 1054.75,-505.79 1050.79,-509.75 1046.83,-509.75"/>
<text text-anchor="middle" x="866.38" y="-492.45" font-family="Arial" font-size="14.00" fill="#c6c5fe">components/admin/modals/AdminReuseResourceModal.jsx</text>
</g>
<!-- pages/AdminElectronicResources.jsx&#45;&gt;components/admin/modals/AdminReuseResourceModal.jsx -->
<g id="edge75" class="edge">
<title>pages/AdminElectronicResources.jsx&#45;&gt;components/admin/modals/AdminReuseResourceModal.jsx</title>
<path fill="none" stroke="#757575" d="M622.16,-475.05C654.22,-478.06 689.23,-481.35 722.44,-484.46"/>
<polygon fill="#757575" stroke="#757575" points="721.84,-487.92 732.12,-485.37 722.5,-480.95 721.84,-487.92"/>
</g>
<!-- constants/admin.js -->
<g id="node57" class="node">
<title>constants/admin.js</title>
<path fill="none" stroke="#cfffac" d="M2039.83,-250.75C2039.83,-250.75 1927.17,-250.75 1927.17,-250.75 1923.21,-250.75 1919.25,-246.79 1919.25,-242.83 1919.25,-242.83 1919.25,-234.92 1919.25,-234.92 1919.25,-230.96 1923.21,-227 1927.17,-227 1927.17,-227 2039.83,-227 2039.83,-227 2043.79,-227 2047.75,-230.96 2047.75,-234.92 2047.75,-234.92 2047.75,-242.83 2047.75,-242.83 2047.75,-246.79 2043.79,-250.75 2039.83,-250.75"/>
<text text-anchor="middle" x="1983.5" y="-233.45" font-family="Arial" font-size="14.00" fill="#cfffac">constants/admin.js</text>
</g>
<!-- pages/AdminElectronicResources.jsx&#45;&gt;constants/admin.js -->
<g id="edge76" class="edge">
<title>pages/AdminElectronicResources.jsx&#45;&gt;constants/admin.js</title>
<path fill="none" stroke="#757575" d="M511.21,-451.56C532.66,-420.59 593.9,-339.71 668.25,-307.88 725.45,-283.38 1637.2,-250.6 1907.53,-241.38"/>
<polygon fill="#757575" stroke="#757575" points="1907.39,-244.89 1917.26,-241.05 1907.15,-237.89 1907.39,-244.89"/>
</g>
<!-- store/adminResourceStore.js -->
<g id="node60" class="node">
<title>store/adminResourceStore.js</title>
<path fill="none" stroke="#cfffac" d="M953.83,-467.75C953.83,-467.75 778.92,-467.75 778.92,-467.75 774.96,-467.75 771,-463.79 771,-459.83 771,-459.83 771,-451.92 771,-451.92 771,-447.96 774.96,-444 778.92,-444 778.92,-444 953.83,-444 953.83,-444 957.79,-444 961.75,-447.96 961.75,-451.92 961.75,-451.92 961.75,-459.83 961.75,-459.83 961.75,-463.79 957.79,-467.75 953.83,-467.75"/>
<text text-anchor="middle" x="866.38" y="-450.45" font-family="Arial" font-size="14.00" fill="#cfffac">store/adminResourceStore.js</text>
</g>
<!-- pages/AdminElectronicResources.jsx&#45;&gt;store/adminResourceStore.js -->
<g id="edge79" class="edge">
<title>pages/AdminElectronicResources.jsx&#45;&gt;store/adminResourceStore.js</title>
<path fill="none" stroke="#757575" d="M622.16,-461.24C666.37,-460.27 716.2,-459.17 759.18,-458.22"/>
<polygon fill="#757575" stroke="#757575" points="759.1,-461.72 769.02,-458 758.94,-454.72 759.1,-461.72"/>
</g>
<!-- util/adminTransformers.js -->
<g id="node61" class="node">
<title>util/adminTransformers.js</title>
<path fill="none" stroke="#cfffac" d="M942.96,-425.75C942.96,-425.75 789.79,-425.75 789.79,-425.75 785.83,-425.75 781.88,-421.79 781.88,-417.83 781.88,-417.83 781.88,-409.92 781.88,-409.92 781.88,-405.96 785.83,-402 789.79,-402 789.79,-402 942.96,-402 942.96,-402 946.92,-402 950.88,-405.96 950.88,-409.92 950.88,-409.92 950.88,-417.83 950.88,-417.83 950.88,-421.79 946.92,-425.75 942.96,-425.75"/>
<text text-anchor="middle" x="866.38" y="-408.45" font-family="Arial" font-size="14.00" fill="#cfffac">util/adminTransformers.js</text>
</g>
<!-- pages/AdminElectronicResources.jsx&#45;&gt;util/adminTransformers.js -->
<g id="edge80" class="edge">
<title>pages/AdminElectronicResources.jsx&#45;&gt;util/adminTransformers.js</title>
<path fill="none" stroke="#757575" d="M567.19,-451.57C597.73,-445.98 634.79,-439.59 668.25,-434.88 701.48,-430.19 737.99,-426.03 770.47,-422.67"/>
<polygon fill="#757575" stroke="#757575" points="770.68,-426.17 780.27,-421.67 769.96,-419.21 770.68,-426.17"/>
</g>
<!-- pages/CourseRecords.jsx&#45;&gt;store/customizationStore.js -->
<g id="edge84" class="edge">
<title>pages/CourseRecords.jsx&#45;&gt;store/customizationStore.js</title>
<path fill="none" stroke="#757575" d="M587.68,-958.47C603.71,-954.94 619.44,-948.89 632.25,-938.88 664.25,-913.86 635.57,-879 668.25,-854.88 695.86,-834.49 731.88,-826.8 765.55,-825.01"/>
<polygon fill="#757575" stroke="#757575" points="765.49,-828.51 775.36,-824.67 765.24,-821.51 765.49,-828.51"/>
</g>
<!-- store/recordStore.js -->
<g id="node26" class="node">
<title>store/recordStore.js</title>
<path fill="none" stroke="#cfffac" d="M925.33,-929.75C925.33,-929.75 807.42,-929.75 807.42,-929.75 803.46,-929.75 799.5,-925.79 799.5,-921.83 799.5,-921.83 799.5,-913.92 799.5,-913.92 799.5,-909.96 803.46,-906 807.42,-906 807.42,-906 925.33,-906 925.33,-906 929.29,-906 933.25,-909.96 933.25,-913.92 933.25,-913.92 933.25,-921.83 933.25,-921.83 933.25,-925.79 929.29,-929.75 925.33,-929.75"/>
<text text-anchor="middle" x="866.38" y="-912.45" font-family="Arial" font-size="14.00" fill="#cfffac">store/recordStore.js</text>
</g>
<!-- pages/CourseRecords.jsx&#45;&gt;store/recordStore.js -->
<g id="edge85" class="edge">
<title>pages/CourseRecords.jsx&#45;&gt;store/recordStore.js</title>
<path fill="none" stroke="#757575" d="M587.45,-948.81C613.36,-945.5 641.97,-941.94 668.25,-938.88 707.75,-934.26 751.75,-929.53 788.14,-925.74"/>
<polygon fill="#757575" stroke="#757575" points="788.09,-929.26 797.67,-924.75 787.37,-922.3 788.09,-929.26"/>
</g>
<!-- components/CourseRecords/RecordCard.jsx -->
<g id="node27" class="node">
<title>components/CourseRecords/RecordCard.jsx</title>
<path fill="none" stroke="#cfffac" d="M1000.71,-1013.75C1000.71,-1013.75 732.04,-1013.75 732.04,-1013.75 728.08,-1013.75 724.12,-1009.79 724.12,-1005.83 724.12,-1005.83 724.12,-997.92 724.12,-997.92 724.12,-993.96 728.08,-990 732.04,-990 732.04,-990 1000.71,-990 1000.71,-990 1004.67,-990 1008.62,-993.96 1008.62,-997.92 1008.62,-997.92 1008.62,-1005.83 1008.62,-1005.83 1008.62,-1009.79 1004.67,-1013.75 1000.71,-1013.75"/>
<text text-anchor="middle" x="866.38" y="-996.45" font-family="Arial" font-size="14.00" fill="#cfffac">components/CourseRecords/RecordCard.jsx</text>
</g>
<!-- pages/CourseRecords.jsx&#45;&gt;components/CourseRecords/RecordCard.jsx -->
<g id="edge81" class="edge">
<title>pages/CourseRecords.jsx&#45;&gt;components/CourseRecords/RecordCard.jsx</title>
<path fill="none" stroke="#757575" d="M587.45,-970.94C613.36,-974.25 641.97,-977.81 668.25,-980.88 689.67,-983.38 712.42,-985.91 734.55,-988.31"/>
<polygon fill="#757575" stroke="#757575" points="733.89,-991.76 744.21,-989.36 734.64,-984.8 733.89,-991.76"/>
</g>
<!-- components/CourseRecords/RecordTable.jsx -->
<g id="node28" class="node">
<title>components/CourseRecords/RecordTable.jsx</title>
<path fill="none" stroke="#cfffac" d="M1002.21,-971.75C1002.21,-971.75 730.54,-971.75 730.54,-971.75 726.58,-971.75 722.62,-967.79 722.62,-963.83 722.62,-963.83 722.62,-955.92 722.62,-955.92 722.62,-951.96 726.58,-948 730.54,-948 730.54,-948 1002.21,-948 1002.21,-948 1006.17,-948 1010.12,-951.96 1010.12,-955.92 1010.12,-955.92 1010.12,-963.83 1010.12,-963.83 1010.12,-967.79 1006.17,-971.75 1002.21,-971.75"/>
<text text-anchor="middle" x="866.38" y="-954.45" font-family="Arial" font-size="14.00" fill="#cfffac">components/CourseRecords/RecordTable.jsx</text>
</g>
<!-- pages/CourseRecords.jsx&#45;&gt;components/CourseRecords/RecordTable.jsx -->
<g id="edge82" class="edge">
<title>pages/CourseRecords.jsx&#45;&gt;components/CourseRecords/RecordTable.jsx</title>
<path fill="none" stroke="#757575" d="M587.5,-959.88C624.36,-959.88 668.77,-959.88 711.17,-959.88"/>
<polygon fill="#757575" stroke="#757575" points="710.97,-963.38 720.97,-959.88 710.97,-956.38 710.97,-963.38"/>
</g>
<!-- pages/CourseRecords.jsx&#45;&gt;components/CourseRecords/api.js -->
<g id="edge83" class="edge">
<title>pages/CourseRecords.jsx&#45;&gt;components/CourseRecords/api.js</title>
<path fill="none" stroke="#757575" d="M587.7,-959.93C604.01,-956.35 619.85,-949.9 632.25,-938.88 675.77,-900.18 623.68,-850.36 668.25,-812.88 689.2,-795.25 716.16,-786.56 743.38,-782.94"/>
<polygon fill="#757575" stroke="#757575" points="743.55,-786.44 753.12,-781.88 742.8,-779.48 743.55,-786.44"/>
</g>
<!-- Home.css -->
<g id="node16" class="node">
<title>Home.css</title>
<path fill="none" stroke="#cfffac" d="M532.46,-23.75C532.46,-23.75 471.54,-23.75 471.54,-23.75 467.58,-23.75 463.62,-19.79 463.62,-15.83 463.62,-15.83 463.62,-7.92 463.62,-7.92 463.62,-3.96 467.58,0 471.54,0 471.54,0 532.46,0 532.46,0 536.42,0 540.38,-3.96 540.38,-7.92 540.38,-7.92 540.38,-15.83 540.38,-15.83 540.38,-19.79 536.42,-23.75 532.46,-23.75"/>
<text text-anchor="middle" x="502" y="-6.45" font-family="Arial" font-size="14.00" fill="#cfffac">Home.css</text>
</g>
<!-- pages/Home.jsx&#45;&gt;Home.css -->
<g id="edge86" class="edge">
<title>pages/Home.jsx&#45;&gt;Home.css</title>
<path fill="none" stroke="#757575" d="M224.7,-185.88C244.82,-155.62 302.24,-75.88 371.75,-37.88 396.31,-24.45 426.89,-17.92 452.14,-14.76"/>
<polygon fill="#757575" stroke="#757575" points="452.27,-18.26 461.83,-13.69 451.5,-11.31 452.27,-18.26"/>
</g>
<!-- pages/Search.jsx&#45;&gt;store/searchStore.js -->
<g id="edge90" class="edge">
<title>pages/Search.jsx&#45;&gt;store/searchStore.js</title>
<path fill="none" stroke="#757575" d="M276,-657.19C374.85,-661.74 569.28,-673.77 632.25,-699.88 651.23,-707.74 649.26,-721.02 668.25,-728.88 705.43,-744.25 749.76,-749.96 786.96,-751.63"/>
<polygon fill="#757575" stroke="#757575" points="786.63,-755.12 796.75,-751.97 786.87,-748.13 786.63,-755.12"/>
</g>
<!-- components/CourseList.jsx -->
<g id="node25" class="node">
<title>components/CourseList.jsx</title>
<path fill="none" stroke="#c6c5fe" d="M583.46,-845.75C583.46,-845.75 420.54,-845.75 420.54,-845.75 416.58,-845.75 412.62,-841.79 412.62,-837.83 412.62,-837.83 412.62,-829.92 412.62,-829.92 412.62,-825.96 416.58,-822 420.54,-822 420.54,-822 583.46,-822 583.46,-822 587.42,-822 591.38,-825.96 591.38,-829.92 591.38,-829.92 591.38,-837.83 591.38,-837.83 591.38,-841.79 587.42,-845.75 583.46,-845.75"/>
<text text-anchor="middle" x="502" y="-828.45" font-family="Arial" font-size="14.00" fill="#c6c5fe">components/CourseList.jsx</text>
</g>
<!-- pages/Search.jsx&#45;&gt;components/CourseList.jsx -->
<g id="edge87" class="edge">
<title>pages/Search.jsx&#45;&gt;components/CourseList.jsx</title>
<path fill="none" stroke="#757575" d="M230.3,-666.93C256.16,-689.96 315.6,-740.92 371.75,-774.88 399.27,-791.52 432.28,-806.51 458.05,-817.22"/>
<polygon fill="#757575" stroke="#757575" points="456.64,-820.42 467.22,-820.96 459.29,-813.94 456.64,-820.42"/>
</g>
<!-- pages/Search.jsx&#45;&gt;hooks/useBuildQuery.js -->
<g id="edge88" class="edge">
<title>pages/Search.jsx&#45;&gt;hooks/useBuildQuery.js</title>
<path fill="none" stroke="#757575" d="M274.05,-642.52C293.7,-637.98 315.78,-632.54 335.75,-626.88 351.97,-622.27 355.37,-618.91 371.75,-614.88 384.51,-611.73 398.1,-608.94 411.49,-606.5"/>
<polygon fill="#757575" stroke="#757575" points="411.94,-609.97 421.18,-604.79 410.73,-603.08 411.94,-609.97"/>
</g>
<!-- pages/Search.jsx&#45;&gt;store/index.js -->
<g id="edge89" class="edge">
<title>pages/Search.jsx&#45;&gt;store/index.js</title>
<path fill="none" stroke="#757575" d="M276.19,-650.92C325.1,-647.64 394.16,-643.02 442.8,-639.77"/>
<polygon fill="#757575" stroke="#757575" points="442.83,-643.27 452.57,-639.11 442.36,-636.29 442.83,-643.27"/>
</g>
<!-- components/AdminCourseTable.jsx -->
<g id="node19" class="node">
<title>components/AdminCourseTable.jsx</title>
<path fill="none" stroke="#c6c5fe" d="M972.96,-181.75C972.96,-181.75 759.79,-181.75 759.79,-181.75 755.83,-181.75 751.88,-177.79 751.88,-173.83 751.88,-173.83 751.88,-165.92 751.88,-165.92 751.88,-161.96 755.83,-158 759.79,-158 759.79,-158 972.96,-158 972.96,-158 976.92,-158 980.88,-161.96 980.88,-165.92 980.88,-165.92 980.88,-173.83 980.88,-173.83 980.88,-177.79 976.92,-181.75 972.96,-181.75"/>
<text text-anchor="middle" x="866.38" y="-164.45" font-family="Arial" font-size="14.00" fill="#c6c5fe">components/AdminCourseTable.jsx</text>
</g>
<!-- components/AdminCourseList.jsx&#45;&gt;components/AdminCourseTable.jsx -->
<g id="edge14" class="edge">
<title>components/AdminCourseList.jsx&#45;&gt;components/AdminCourseTable.jsx</title>
<path fill="none" stroke="#757575" d="M611.23,-185.3C651.73,-182.85 698.07,-180.03 739.99,-177.49"/>
<polygon fill="#757575" stroke="#757575" points="740.12,-180.99 749.89,-176.89 739.7,-174 740.12,-180.99"/>
</g>
<!-- store/courseManagementStore.js -->
<g id="node20" class="node">
<title>store/courseManagementStore.js</title>
<path fill="none" stroke="#cfffac" d="M1362.46,-181.75C1362.46,-181.75 1162.04,-181.75 1162.04,-181.75 1158.08,-181.75 1154.12,-177.79 1154.12,-173.83 1154.12,-173.83 1154.12,-165.92 1154.12,-165.92 1154.12,-161.96 1158.08,-158 1162.04,-158 1162.04,-158 1362.46,-158 1362.46,-158 1366.42,-158 1370.38,-161.96 1370.38,-165.92 1370.38,-165.92 1370.38,-173.83 1370.38,-173.83 1370.38,-177.79 1366.42,-181.75 1362.46,-181.75"/>
<text text-anchor="middle" x="1262.25" y="-164.45" font-family="Arial" font-size="14.00" fill="#cfffac">store/courseManagementStore.js</text>
</g>
<!-- components/AdminCourseTable.jsx&#45;&gt;store/courseManagementStore.js -->
<g id="edge15" class="edge">
<title>components/AdminCourseTable.jsx&#45;&gt;store/courseManagementStore.js</title>
<path fill="none" stroke="#757575" d="M981.3,-169.88C1031.78,-169.88 1091.17,-169.88 1142.23,-169.88"/>
<polygon fill="#757575" stroke="#757575" points="1142.15,-173.38 1152.15,-169.88 1142.15,-166.38 1142.15,-173.38"/>
</g>
<!-- components/AdminSidebar.jsx&#45;&gt;store/searchStore.js -->
<g id="edge19" class="edge">
<title>components/AdminSidebar.jsx&#45;&gt;store/searchStore.js</title>
<path fill="none" stroke="#757575" d="M601.98,-555.24C613.16,-559.13 623.62,-564.8 632.25,-572.88 684.19,-621.51 614.99,-681.69 668.25,-728.88 699.97,-756.98 746.78,-762.91 786.83,-761.49"/>
<polygon fill="#757575" stroke="#757575" points="786.88,-764.99 796.68,-760.97 786.51,-758 786.88,-764.99"/>
</g>
<!-- components/AdminSidebar.jsx&#45;&gt;Searchbar.css -->
<g id="edge16" class="edge">
<title>components/AdminSidebar.jsx&#45;&gt;Searchbar.css</title>
<path fill="none" stroke="#757575" d="M601.71,-556.01C612.87,-559.79 623.39,-565.22 632.25,-572.88 672.44,-607.63 627.12,-653.24 668.25,-686.88 705.71,-717.51 761.49,-720.83 804.16,-717.6"/>
<polygon fill="#757575" stroke="#757575" points="804.4,-721.09 814.04,-716.69 803.76,-714.12 804.4,-721.09"/>
</g>
<!-- components/AdminSidebar.jsx&#45;&gt;store/adminSearchStore.js -->
<g id="edge17" class="edge">
<title>components/AdminSidebar.jsx&#45;&gt;store/adminSearchStore.js</title>
<path fill="none" stroke="#757575" d="M601.93,-557.81C612.79,-561.33 623.18,-566.21 632.25,-572.88 661.07,-594.07 638.86,-624.48 668.25,-644.88 696.7,-664.62 733.24,-672.09 767.12,-673.88"/>
<polygon fill="#757575" stroke="#757575" points="766.86,-677.37 776.98,-674.22 767.11,-670.37 766.86,-677.37"/>
</g>
<!-- components/AdminSidebar.jsx&#45;&gt;store/customizationStore.js -->
<g id="edge18" class="edge">
<title>components/AdminSidebar.jsx&#45;&gt;store/customizationStore.js</title>
<path fill="none" stroke="#757575" d="M601.95,-554.38C613.28,-558.38 623.78,-564.3 632.25,-572.88 708.05,-649.61 590.37,-738.25 668.25,-812.88 697.2,-840.61 740.63,-847.46 779.36,-846.67"/>
<polygon fill="#757575" stroke="#757575" points="779.3,-850.18 789.16,-846.29 779.03,-843.18 779.3,-850.18"/>
</g>
<!-- components/CourseCard.jsx -->
<g id="node24" class="node">
<title>components/CourseCard.jsx</title>
<path fill="none" stroke="#cfffac" d="M951.96,-887.75C951.96,-887.75 780.79,-887.75 780.79,-887.75 776.83,-887.75 772.88,-883.79 772.88,-879.83 772.88,-879.83 772.88,-871.92 772.88,-871.92 772.88,-867.96 776.83,-864 780.79,-864 780.79,-864 951.96,-864 951.96,-864 955.92,-864 959.88,-867.96 959.88,-871.92 959.88,-871.92 959.88,-879.83 959.88,-879.83 959.88,-883.79 955.92,-887.75 951.96,-887.75"/>
<text text-anchor="middle" x="866.38" y="-870.45" font-family="Arial" font-size="14.00" fill="#cfffac">components/CourseCard.jsx</text>
</g>
<!-- components/CourseList.jsx&#45;&gt;store/customizationStore.js -->
<g id="edge21" class="edge">
<title>components/CourseList.jsx&#45;&gt;store/customizationStore.js</title>
<path fill="none" stroke="#757575" d="M591.65,-833.88C644.17,-833.88 710.88,-833.88 765.29,-833.88"/>
<polygon fill="#757575" stroke="#757575" points="765.19,-837.38 775.19,-833.88 765.19,-830.38 765.19,-837.38"/>
</g>
<!-- components/CourseList.jsx&#45;&gt;components/CourseCard.jsx -->
<g id="edge20" class="edge">
<title>components/CourseList.jsx&#45;&gt;components/CourseCard.jsx</title>
<path fill="none" stroke="#757575" d="M591.72,-845.49C616.48,-848.63 643.4,-851.97 668.25,-854.88 698.41,-858.4 731.2,-861.99 761.21,-865.18"/>
<polygon fill="#757575" stroke="#757575" points="760.75,-868.65 771.07,-866.22 761.49,-861.69 760.75,-868.65"/>
</g>
<!-- components/CourseList.jsx&#45;&gt;store/recordStore.js -->
<g id="edge22" class="edge">
<title>components/CourseList.jsx&#45;&gt;store/recordStore.js</title>
<path fill="none" stroke="#757575" d="M591.67,-839.81C605.82,-843.11 619.86,-847.92 632.25,-854.88 653.69,-866.91 646.49,-885.43 668.25,-896.88 704.71,-916.05 750.16,-921.88 788.23,-922.66"/>
<polygon fill="#757575" stroke="#757575" points="787.73,-926.16 797.76,-922.74 787.79,-919.16 787.73,-926.16"/>
</g>
<!-- components/admin/modals/AdminEditResourceModel.jsx -->
<g id="node32" class="node">
<title>components/admin/modals/AdminEditResourceModel.jsx</title>
<path fill="none" stroke="#c6c5fe" d="M1038.96,-223.75C1038.96,-223.75 693.79,-223.75 693.79,-223.75 689.83,-223.75 685.88,-219.79 685.88,-215.83 685.88,-215.83 685.88,-207.92 685.88,-207.92 685.88,-203.96 689.83,-200 693.79,-200 693.79,-200 1038.96,-200 1038.96,-200 1042.92,-200 1046.88,-203.96 1046.88,-207.92 1046.88,-207.92 1046.88,-215.83 1046.88,-215.83 1046.88,-219.79 1042.92,-223.75 1038.96,-223.75"/>
<text text-anchor="middle" x="866.38" y="-206.45" font-family="Arial" font-size="14.00" fill="#c6c5fe">components/admin/modals/AdminEditResourceModel.jsx</text>
</g>
<!-- components/ResourceListTable.jsx&#45;&gt;components/admin/modals/AdminEditResourceModel.jsx -->
<g id="edge27" class="edge">
<title>components/ResourceListTable.jsx&#45;&gt;components/admin/modals/AdminEditResourceModel.jsx</title>
<path fill="none" stroke="#757575" d="M614.68,-234.01C646.07,-231.24 680.74,-228.18 714.03,-225.24"/>
<polygon fill="#757575" stroke="#757575" points="714.09,-228.75 723.75,-224.38 713.48,-221.77 714.09,-228.75"/>
</g>
<!-- components/ResourceListTable.jsx&#45;&gt;hooks/admin/useAdminModal.js -->
<g id="edge28" class="edge">
<title>components/ResourceListTable.jsx&#45;&gt;hooks/admin/useAdminModal.js</title>
<path fill="none" stroke="#757575" d="M614.68,-246.96C657.73,-248.14 706.95,-249.5 750.31,-250.7"/>
<polygon fill="#757575" stroke="#757575" points="750.18,-254.2 760.27,-250.97 750.37,-247.2 750.18,-254.2"/>
</g>
<!-- components/ResourceListTable.jsx&#45;&gt;services/admin/adminResourceService.js -->
<g id="edge29" class="edge">
<title>components/ResourceListTable.jsx&#45;&gt;services/admin/adminResourceService.js</title>
<path fill="none" stroke="#757575" d="M595.85,-231.52C608.88,-227.05 621.48,-221.01 632.25,-212.88 658.29,-193.2 642.76,-169.26 668.25,-148.88 695.19,-127.33 729.87,-113.64 762.6,-104.95"/>
<polygon fill="#757575" stroke="#757575" points="763.29,-108.38 772.14,-102.56 761.59,-101.59 763.29,-108.38"/>
</g>
<!-- components/admin/forms/AdminEditForm.jsx -->
<g id="node46" class="node">
<title>components/admin/forms/AdminEditForm.jsx</title>
<path fill="none" stroke="#c6c5fe" d="M1398.46,-438.75C1398.46,-438.75 1126.04,-438.75 1126.04,-438.75 1122.08,-438.75 1118.12,-434.79 1118.12,-430.83 1118.12,-430.83 1118.12,-422.92 1118.12,-422.92 1118.12,-418.96 1122.08,-415 1126.04,-415 1126.04,-415 1398.46,-415 1398.46,-415 1402.42,-415 1406.38,-418.96 1406.38,-422.92 1406.38,-422.92 1406.38,-430.83 1406.38,-430.83 1406.38,-434.79 1402.42,-438.75 1398.46,-438.75"/>
<text text-anchor="middle" x="1262.25" y="-421.45" font-family="Arial" font-size="14.00" fill="#c6c5fe">components/admin/forms/AdminEditForm.jsx</text>
</g>
<!-- components/admin/modals/AdminEditResourceModel.jsx&#45;&gt;components/admin/forms/AdminEditForm.jsx -->
<g id="edge56" class="edge">
<title>components/admin/modals/AdminEditResourceModel.jsx&#45;&gt;components/admin/forms/AdminEditForm.jsx</title>
<path fill="none" stroke="#757575" d="M1047.1,-220.32C1053.27,-223.91 1059.1,-228.07 1064.5,-232.88 1118.92,-281.36 1048.63,-341.67 1100.5,-392.88 1107.21,-399.5 1114.87,-404.98 1123.12,-409.5"/>
<polygon fill="#757575" stroke="#757575" points="1121.57,-412.64 1132.09,-413.89 1124.64,-406.35 1121.57,-412.64"/>
</g>
<!-- services/admin/adminResourceService.js&#45;&gt;constants/admin.js -->
<g id="edge92" class="edge">
<title>services/admin/adminResourceService.js&#45;&gt;constants/admin.js</title>
<path fill="none" stroke="#757575" d="M998.96,-89.73C1112.1,-91.11 1279.43,-96.72 1424,-115.88 1611.18,-140.67 1828.46,-196.5 1927.83,-223.58"/>
<polygon fill="#757575" stroke="#757575" points="1926.76,-226.91 1937.33,-226.18 1928.61,-220.16 1926.76,-226.91"/>
</g>
<!-- components/ResourceSearchSidebar.jsx&#45;&gt;services/admin/adminResourceService.js -->
<g id="edge31" class="edge">
<title>components/ResourceSearchSidebar.jsx&#45;&gt;services/admin/adminResourceService.js</title>
<path fill="none" stroke="#757575" d="M614.68,-117.55C655.07,-113.09 700.88,-108.03 742.2,-103.47"/>
<polygon fill="#757575" stroke="#757575" points="742.38,-106.97 751.93,-102.4 741.61,-100.02 742.38,-106.97"/>
</g>
<!-- services/admin/adminMaterialTypeService.js -->
<g id="node36" class="node">
<title>services/admin/adminMaterialTypeService.js</title>
<path fill="none" stroke="#cfffac" d="M2117.83,-405.75C2117.83,-405.75 1849.17,-405.75 1849.17,-405.75 1845.21,-405.75 1841.25,-401.79 1841.25,-397.83 1841.25,-397.83 1841.25,-389.92 1841.25,-389.92 1841.25,-385.96 1845.21,-382 1849.17,-382 1849.17,-382 2117.83,-382 2117.83,-382 2121.79,-382 2125.75,-385.96 2125.75,-389.92 2125.75,-389.92 2125.75,-397.83 2125.75,-397.83 2125.75,-401.79 2121.79,-405.75 2117.83,-405.75"/>
<text text-anchor="middle" x="1983.5" y="-388.45" font-family="Arial" font-size="14.00" fill="#cfffac">services/admin/adminMaterialTypeService.js</text>
</g>
<!-- components/ResourceSearchSidebar.jsx&#45;&gt;services/admin/adminMaterialTypeService.js -->
<g id="edge30" class="edge">
<title>components/ResourceSearchSidebar.jsx&#45;&gt;services/admin/adminMaterialTypeService.js</title>
<path fill="none" stroke="#757575" d="M632.36,-124.58C849.85,-117 1279.19,-108.12 1424,-148.88 1441.83,-153.89 1443.23,-162 1460,-169.88 1607.85,-239.3 1656.61,-228.15 1805.25,-295.88 1858.98,-320.36 1918.49,-354.89 1953.08,-375.75"/>
<polygon fill="#757575" stroke="#757575" points="1950.9,-378.52 1961.27,-380.72 1954.53,-372.54 1950.9,-378.52"/>
</g>
<!-- components/ResourceSearchSidebar.jsx&#45;&gt;store/resourceSearchStore.js -->
<g id="edge32" class="edge">
<title>components/ResourceSearchSidebar.jsx&#45;&gt;store/resourceSearchStore.js</title>
<path fill="none" stroke="#757575" d="M529.85,-117.61C562.03,-103.46 617.93,-80.65 668.25,-68.88 697.52,-62.03 729.76,-57.41 759.54,-54.29"/>
<polygon fill="#757575" stroke="#757575" points="759.71,-57.79 769.32,-53.32 759.02,-50.83 759.71,-57.79"/>
</g>
<!-- components/admin/forms/AdditionalCommonFields.jsx -->
<g id="node39" class="node">
<title>components/admin/forms/AdditionalCommonFields.jsx</title>
<path fill="none" stroke="#c6c5fe" d="M1797.33,-446.75C1797.33,-446.75 1467.92,-446.75 1467.92,-446.75 1463.96,-446.75 1460,-442.79 1460,-438.83 1460,-438.83 1460,-430.92 1460,-430.92 1460,-426.96 1463.96,-423 1467.92,-423 1467.92,-423 1797.33,-423 1797.33,-423 1801.29,-423 1805.25,-426.96 1805.25,-430.92 1805.25,-430.92 1805.25,-438.83 1805.25,-438.83 1805.25,-442.79 1801.29,-446.75 1797.33,-446.75"/>
<text text-anchor="middle" x="1632.62" y="-429.45" font-family="Arial" font-size="14.00" fill="#c6c5fe">components/admin/forms/AdditionalCommonFields.jsx</text>
</g>
<!-- hooks/useFolderManagement.js -->
<g id="node40" class="node">
<title>hooks/useFolderManagement.js</title>
<path fill="none" stroke="#cfffac" d="M2080.33,-447.75C2080.33,-447.75 1886.67,-447.75 1886.67,-447.75 1882.71,-447.75 1878.75,-443.79 1878.75,-439.83 1878.75,-439.83 1878.75,-431.92 1878.75,-431.92 1878.75,-427.96 1882.71,-424 1886.67,-424 1886.67,-424 2080.33,-424 2080.33,-424 2084.29,-424 2088.25,-427.96 2088.25,-431.92 2088.25,-431.92 2088.25,-439.83 2088.25,-439.83 2088.25,-443.79 2084.29,-447.75 2080.33,-447.75"/>
<text text-anchor="middle" x="1983.5" y="-430.45" font-family="Arial" font-size="14.00" fill="#cfffac">hooks/useFolderManagement.js</text>
</g>
<!-- components/admin/forms/AdditionalCommonFields.jsx&#45;&gt;hooks/useFolderManagement.js -->
<g id="edge36" class="edge">
<title>components/admin/forms/AdditionalCommonFields.jsx&#45;&gt;hooks/useFolderManagement.js</title>
<path fill="none" stroke="#757575" d="M1805.51,-435.37C1826.36,-435.43 1847.25,-435.49 1867.01,-435.54"/>
<polygon fill="#757575" stroke="#757575" points="1866.97,-439.04 1876.98,-435.57 1866.99,-432.04 1866.97,-439.04"/>
</g>
<!-- components/admin/forms/AdminEDSForm.jsx -->
<g id="node41" class="node">
<title>components/admin/forms/AdminEDSForm.jsx</title>
<path fill="none" stroke="#c6c5fe" d="M1400.71,-534.75C1400.71,-534.75 1123.79,-534.75 1123.79,-534.75 1119.83,-534.75 1115.88,-530.79 1115.88,-526.83 1115.88,-526.83 1115.88,-518.92 1115.88,-518.92 1115.88,-514.96 1119.83,-511 1123.79,-511 1123.79,-511 1400.71,-511 1400.71,-511 1404.67,-511 1408.62,-514.96 1408.62,-518.92 1408.62,-518.92 1408.62,-526.83 1408.62,-526.83 1408.62,-530.79 1404.67,-534.75 1400.71,-534.75"/>
<text text-anchor="middle" x="1262.25" y="-517.45" font-family="Arial" font-size="14.00" fill="#c6c5fe">components/admin/forms/AdminEDSForm.jsx</text>
</g>
<!-- components/admin/forms/AdminEDSForm.jsx&#45;&gt;services/admin/adminMaterialTypeService.js -->
<g id="edge41" class="edge">
<title>components/admin/forms/AdminEDSForm.jsx&#45;&gt;services/admin/adminMaterialTypeService.js</title>
<path fill="none" stroke="#757575" d="M1408.91,-524.01C1558.33,-523.93 1773.34,-519.89 1805.25,-497.88 1838.35,-475.04 1809.35,-439.36 1841.25,-414.88 1842.6,-413.84 1843.98,-412.84 1845.39,-411.88"/>
<polygon fill="#757575" stroke="#757575" points="1846.96,-415.02 1853.75,-406.89 1843.37,-409.01 1846.96,-415.02"/>
</g>
<!-- components/admin/forms/AdminEDSForm.jsx&#45;&gt;components/admin/forms/AdditionalCommonFields.jsx -->
<g id="edge37" class="edge">
<title>components/admin/forms/AdminEDSForm.jsx&#45;&gt;components/admin/forms/AdditionalCommonFields.jsx</title>
<path fill="none" stroke="#757575" d="M1405.57,-510.64C1411.95,-508.13 1418.13,-505.22 1424,-501.88 1446.55,-489.01 1437.4,-468.64 1460,-455.88 1462.66,-454.37 1465.39,-452.95 1468.16,-451.61"/>
<polygon fill="#757575" stroke="#757575" points="1469.28,-454.95 1477.03,-447.73 1466.47,-448.54 1469.28,-454.95"/>
</g>
<!-- components/admin/forms/TypeSpecificFields.jsx -->
<g id="node42" class="node">
<title>components/admin/forms/TypeSpecificFields.jsx</title>
<path fill="none" stroke="#cfffac" d="M1777.83,-488.75C1777.83,-488.75 1487.42,-488.75 1487.42,-488.75 1483.46,-488.75 1479.5,-484.79 1479.5,-480.83 1479.5,-480.83 1479.5,-472.92 1479.5,-472.92 1479.5,-468.96 1483.46,-465 1487.42,-465 1487.42,-465 1777.83,-465 1777.83,-465 1781.79,-465 1785.75,-468.96 1785.75,-472.92 1785.75,-472.92 1785.75,-480.83 1785.75,-480.83 1785.75,-484.79 1781.79,-488.75 1777.83,-488.75"/>
<text text-anchor="middle" x="1632.62" y="-471.45" font-family="Arial" font-size="14.00" fill="#cfffac">components/admin/forms/TypeSpecificFields.jsx</text>
</g>
<!-- components/admin/forms/AdminEDSForm.jsx&#45;&gt;components/admin/forms/TypeSpecificFields.jsx -->
<g id="edge38" class="edge">
<title>components/admin/forms/AdminEDSForm.jsx&#45;&gt;components/admin/forms/TypeSpecificFields.jsx</title>
<path fill="none" stroke="#757575" d="M1361.97,-510.55C1411.11,-504.41 1470.67,-496.97 1521.31,-490.65"/>
<polygon fill="#757575" stroke="#757575" points="1521.64,-494.14 1531.13,-489.42 1520.78,-487.19 1521.64,-494.14"/>
</g>
<!-- constants/edsFieldMapping.js -->
<g id="node43" class="node">
<title>constants/edsFieldMapping.js</title>
<path fill="none" stroke="#cfffac" d="M2072.83,-588.75C2072.83,-588.75 1894.17,-588.75 1894.17,-588.75 1890.21,-588.75 1886.25,-584.79 1886.25,-580.83 1886.25,-580.83 1886.25,-572.92 1886.25,-572.92 1886.25,-568.96 1890.21,-565 1894.17,-565 1894.17,-565 2072.83,-565 2072.83,-565 2076.79,-565 2080.75,-568.96 2080.75,-572.92 2080.75,-572.92 2080.75,-580.83 2080.75,-580.83 2080.75,-584.79 2076.79,-588.75 2072.83,-588.75"/>
<text text-anchor="middle" x="1983.5" y="-571.45" font-family="Arial" font-size="14.00" fill="#cfffac">constants/edsFieldMapping.js</text>
</g>
<!-- components/admin/forms/AdminEDSForm.jsx&#45;&gt;constants/edsFieldMapping.js -->
<g id="edge39" class="edge">
<title>components/admin/forms/AdminEDSForm.jsx&#45;&gt;constants/edsFieldMapping.js</title>
<path fill="none" stroke="#757575" d="M1296.43,-535.16C1335.08,-548.75 1401.14,-569.8 1460,-577.88 1602.42,-597.41 1768.74,-592.37 1874.8,-585.7"/>
<polygon fill="#757575" stroke="#757575" points="1874.88,-589.21 1884.64,-585.07 1874.43,-582.22 1874.88,-589.21"/>
</g>
<!-- components/admin/forms/AdminEDSForm.jsx&#45;&gt;services/admin/adminCourseService.js -->
<g id="edge40" class="edge">
<title>components/admin/forms/AdminEDSForm.jsx&#45;&gt;services/admin/adminCourseService.js</title>
<path fill="none" stroke="#757575" d="M1409.09,-511.39C1414.32,-508.64 1419.32,-505.48 1424,-501.88 1457.48,-476.09 1432.06,-445.58 1460,-413.88 1493.92,-375.38 1546.96,-348.71 1585.1,-333.21"/>
<polygon fill="#757575" stroke="#757575" points="1586.01,-336.62 1594.03,-329.69 1583.44,-330.1 1586.01,-336.62"/>
</g>
<!-- util/mapEDSRecordToRespurce.js -->
<g id="node45" class="node">
<title>util/mapEDSRecordToRespurce.js</title>
<path fill="none" stroke="#c6c5fe" d="M1735.08,-568.75C1735.08,-568.75 1530.17,-568.75 1530.17,-568.75 1526.21,-568.75 1522.25,-564.79 1522.25,-560.83 1522.25,-560.83 1522.25,-552.92 1522.25,-552.92 1522.25,-548.96 1526.21,-545 1530.17,-545 1530.17,-545 1735.08,-545 1735.08,-545 1739.04,-545 1743,-548.96 1743,-552.92 1743,-552.92 1743,-560.83 1743,-560.83 1743,-564.79 1739.04,-568.75 1735.08,-568.75"/>
<text text-anchor="middle" x="1632.62" y="-551.45" font-family="Arial" font-size="14.00" fill="#c6c5fe">util/mapEDSRecordToRespurce.js</text>
</g>
<!-- components/admin/forms/AdminEDSForm.jsx&#45;&gt;util/mapEDSRecordToRespurce.js -->
<g id="edge42" class="edge">
<title>components/admin/forms/AdminEDSForm.jsx&#45;&gt;util/mapEDSRecordToRespurce.js</title>
<path fill="none" stroke="#757575" d="M1397.28,-535.25C1434.38,-538.67 1474.42,-542.37 1510.73,-545.72"/>
<polygon fill="#757575" stroke="#757575" points="1510.08,-549.17 1520.36,-546.61 1510.72,-542.2 1510.08,-549.17"/>
</g>
<!-- services/admin/adminCourseService.js&#45;&gt;constants/admin.js -->
<g id="edge91" class="edge">
<title>services/admin/adminCourseService.js&#45;&gt;constants/admin.js</title>
<path fill="none" stroke="#757575" d="M1688.91,-304.52C1750.57,-290.73 1850.28,-268.44 1916.12,-253.72"/>
<polygon fill="#757575" stroke="#757575" points="1916.72,-257.17 1925.71,-251.57 1915.19,-250.34 1916.72,-257.17"/>
</g>
<!-- util/mapEDSRecordToRespurce.js&#45;&gt;services/admin/adminMaterialTypeService.js -->
<g id="edge94" class="edge">
<title>util/mapEDSRecordToRespurce.js&#45;&gt;services/admin/adminMaterialTypeService.js</title>
<path fill="none" stroke="#757575" d="M1743.09,-558.53C1765.7,-554.16 1787.88,-545.81 1805.25,-530.88 1846.18,-495.68 1800.27,-450.01 1841.25,-414.88 1842.21,-414.05 1843.2,-413.25 1844.2,-412.47"/>
<polygon fill="#757575" stroke="#757575" points="1846.04,-415.44 1852.36,-406.94 1842.12,-409.65 1846.04,-415.44"/>
</g>
<!-- util/mapEDSRecordToRespurce.js&#45;&gt;constants/edsFieldMapping.js -->
<g id="edge93" class="edge">
<title>util/mapEDSRecordToRespurce.js&#45;&gt;constants/edsFieldMapping.js</title>
<path fill="none" stroke="#757575" d="M1743.05,-563.15C1784.97,-565.55 1832.73,-568.29 1874.52,-570.68"/>
<polygon fill="#757575" stroke="#757575" points="1874.15,-574.17 1884.34,-571.25 1874.55,-567.18 1874.15,-574.17"/>
</g>
<!-- components/admin/forms/AdminEditForm.jsx&#45;&gt;services/admin/adminMaterialTypeService.js -->
<g id="edge45" class="edge">
<title>components/admin/forms/AdminEditForm.jsx&#45;&gt;services/admin/adminMaterialTypeService.js</title>
<path fill="none" stroke="#757575" d="M1406.68,-416.93C1424.63,-415.83 1442.74,-414.78 1460,-413.88 1584.31,-407.39 1725.37,-402.11 1829.56,-398.61"/>
<polygon fill="#757575" stroke="#757575" points="1829.41,-402.12 1839.29,-398.29 1829.18,-395.12 1829.41,-402.12"/>
</g>
<!-- components/admin/forms/AdminEditForm.jsx&#45;&gt;components/admin/forms/AdditionalCommonFields.jsx -->
<g id="edge43" class="edge">
<title>components/admin/forms/AdminEditForm.jsx&#45;&gt;components/admin/forms/AdditionalCommonFields.jsx</title>
<path fill="none" stroke="#757575" d="M1406.73,-429.99C1420.44,-430.29 1434.46,-430.59 1448.48,-430.9"/>
<polygon fill="#757575" stroke="#757575" points="1448.13,-434.39 1458.2,-431.11 1448.28,-427.39 1448.13,-434.39"/>
</g>
<!-- components/admin/forms/AdminEditForm.jsx&#45;&gt;components/admin/forms/TypeSpecificFields.jsx -->
<g id="edge44" class="edge">
<title>components/admin/forms/AdminEditForm.jsx&#45;&gt;components/admin/forms/TypeSpecificFields.jsx</title>
<path fill="none" stroke="#757575" d="M1344.07,-439.25C1379.61,-444.57 1421.85,-450.73 1460,-455.88 1478.07,-458.31 1497.23,-460.77 1515.94,-463.11"/>
<polygon fill="#757575" stroke="#757575" points="1515.34,-466.57 1525.7,-464.33 1516.21,-459.62 1515.34,-466.57"/>
</g>
<!-- components/admin/forms/AdminHitchcockForm.jsx -->
<g id="node47" class="node">
<title>components/admin/forms/AdminHitchcockForm.jsx</title>
<path fill="none" stroke="#c6c5fe" d="M1416.08,-383.75C1416.08,-383.75 1108.42,-383.75 1108.42,-383.75 1104.46,-383.75 1100.5,-379.79 1100.5,-375.83 1100.5,-375.83 1100.5,-367.92 1100.5,-367.92 1100.5,-363.96 1104.46,-360 1108.42,-360 1108.42,-360 1416.08,-360 1416.08,-360 1420.04,-360 1424,-363.96 1424,-367.92 1424,-367.92 1424,-375.83 1424,-375.83 1424,-379.79 1420.04,-383.75 1416.08,-383.75"/>
<text text-anchor="middle" x="1262.25" y="-366.45" font-family="Arial" font-size="14.00" fill="#c6c5fe">components/admin/forms/AdminHitchcockForm.jsx</text>
</g>
<!-- components/admin/forms/AdminHitchcockForm.jsx&#45;&gt;services/admin/adminMaterialTypeService.js -->
<g id="edge49" class="edge">
<title>components/admin/forms/AdminHitchcockForm.jsx&#45;&gt;services/admin/adminMaterialTypeService.js</title>
<path fill="none" stroke="#757575" d="M1424.3,-372.16C1532.15,-372.94 1677.27,-375.12 1805.25,-380.88 1813.2,-381.23 1821.34,-381.65 1829.56,-382.11"/>
<polygon fill="#757575" stroke="#757575" points="1829.11,-385.59 1839.3,-382.68 1829.52,-378.6 1829.11,-385.59"/>
</g>
<!-- components/admin/forms/AdminHitchcockForm.jsx&#45;&gt;components/admin/forms/AdditionalCommonFields.jsx -->
<g id="edge46" class="edge">
<title>components/admin/forms/AdminHitchcockForm.jsx&#45;&gt;components/admin/forms/AdditionalCommonFields.jsx</title>
<path fill="none" stroke="#757575" d="M1335.59,-384.25C1396.67,-394.69 1484.16,-409.65 1548.18,-420.6"/>
<polygon fill="#757575" stroke="#757575" points="1547.51,-424.04 1557.96,-422.28 1548.69,-417.14 1547.51,-424.04"/>
</g>
<!-- components/admin/forms/AdminHitchcockForm.jsx&#45;&gt;components/admin/forms/TypeSpecificFields.jsx -->
<g id="edge47" class="edge">
<title>components/admin/forms/AdminHitchcockForm.jsx&#45;&gt;components/admin/forms/TypeSpecificFields.jsx</title>
<path fill="none" stroke="#757575" d="M1374.75,-384.22C1392.11,-389.24 1409.18,-396.22 1424,-405.88 1446.94,-420.83 1436.43,-441.93 1460,-455.88 1462.85,-457.56 1465.76,-459.14 1468.74,-460.61"/>
<polygon fill="#757575" stroke="#757575" points="1467.16,-463.74 1477.72,-464.64 1470.03,-457.35 1467.16,-463.74"/>
</g>
<!-- components/admin/forms/AdminHitchcockForm.jsx&#45;&gt;services/admin/adminCourseService.js -->
<g id="edge48" class="edge">
<title>components/admin/forms/AdminHitchcockForm.jsx&#45;&gt;services/admin/adminCourseService.js</title>
<path fill="none" stroke="#757575" d="M1345.92,-359.53C1402.82,-351.04 1478.51,-339.74 1537.69,-330.9"/>
<polygon fill="#757575" stroke="#757575" points="1538.04,-334.39 1547.42,-329.45 1537.01,-327.46 1538.04,-334.39"/>
</g>
<!-- components/admin/forms/AdminResourceForm.jsx -->
<g id="node48" class="node">
<title>components/admin/forms/AdminResourceForm.jsx</title>
<path fill="none" stroke="#c6c5fe" d="M1415.71,-640.75C1415.71,-640.75 1108.79,-640.75 1108.79,-640.75 1104.83,-640.75 1100.88,-636.79 1100.88,-632.83 1100.88,-632.83 1100.88,-624.92 1100.88,-624.92 1100.88,-620.96 1104.83,-617 1108.79,-617 1108.79,-617 1415.71,-617 1415.71,-617 1419.67,-617 1423.62,-620.96 1423.62,-624.92 1423.62,-624.92 1423.62,-632.83 1423.62,-632.83 1423.62,-636.79 1419.67,-640.75 1415.71,-640.75"/>
<text text-anchor="middle" x="1262.25" y="-623.45" font-family="Arial" font-size="14.00" fill="#c6c5fe">components/admin/forms/AdminResourceForm.jsx</text>
</g>
<!-- components/admin/forms/AdminResourceForm.jsx&#45;&gt;components/admin/forms/AdditionalCommonFields.jsx -->
<g id="edge50" class="edge">
<title>components/admin/forms/AdminResourceForm.jsx&#45;&gt;components/admin/forms/AdditionalCommonFields.jsx</title>
<path fill="none" stroke="#757575" d="M1303.23,-616.55C1339.14,-603.64 1391.14,-580.13 1424,-543.88 1452.38,-512.57 1426.41,-481.52 1460,-455.88 1461.34,-454.85 1462.71,-453.86 1464.1,-452.9"/>
<polygon fill="#757575" stroke="#757575" points="1465.59,-456.09 1472.27,-447.87 1461.92,-450.13 1465.59,-456.09"/>
</g>
<!-- components/admin/forms/AdminResourceForm.jsx&#45;&gt;components/admin/forms/TypeSpecificFields.jsx -->
<g id="edge52" class="edge">
<title>components/admin/forms/AdminResourceForm.jsx&#45;&gt;components/admin/forms/TypeSpecificFields.jsx</title>
<path fill="none" stroke="#757575" d="M1287.1,-616.55C1323.73,-597.86 1396.31,-561.78 1460,-535.88 1500.03,-519.59 1546.43,-503.82 1580.88,-492.69"/>
<polygon fill="#757575" stroke="#757575" points="1581.73,-496.09 1590.19,-489.7 1579.6,-489.43 1581.73,-496.09"/>
</g>
<!-- components/admin/forms/BasicFields.jsx -->
<g id="node49" class="node">
<title>components/admin/forms/BasicFields.jsx</title>
<path fill="none" stroke="#cfffac" d="M1756.08,-648.75C1756.08,-648.75 1509.17,-648.75 1509.17,-648.75 1505.21,-648.75 1501.25,-644.79 1501.25,-640.83 1501.25,-640.83 1501.25,-632.92 1501.25,-632.92 1501.25,-628.96 1505.21,-625 1509.17,-625 1509.17,-625 1756.08,-625 1756.08,-625 1760.04,-625 1764,-628.96 1764,-632.92 1764,-632.92 1764,-640.83 1764,-640.83 1764,-644.79 1760.04,-648.75 1756.08,-648.75"/>
<text text-anchor="middle" x="1632.62" y="-631.45" font-family="Arial" font-size="14.00" fill="#cfffac">components/admin/forms/BasicFields.jsx</text>
</g>
<!-- components/admin/forms/AdminResourceForm.jsx&#45;&gt;components/admin/forms/BasicFields.jsx -->
<g id="edge51" class="edge">
<title>components/admin/forms/AdminResourceForm.jsx&#45;&gt;components/admin/forms/BasicFields.jsx</title>
<path fill="none" stroke="#757575" d="M1424.02,-632.37C1445.78,-632.84 1467.98,-633.32 1489.39,-633.79"/>
<polygon fill="#757575" stroke="#757575" points="1489.26,-637.28 1499.33,-634 1489.41,-630.29 1489.26,-637.28"/>
</g>
<!-- constants/materialTypeConfig.js -->
<g id="node50" class="node">
<title>constants/materialTypeConfig.js</title>
<path fill="none" stroke="#cfffac" d="M1728.71,-732.75C1728.71,-732.75 1536.54,-732.75 1536.54,-732.75 1532.58,-732.75 1528.62,-728.79 1528.62,-724.83 1528.62,-724.83 1528.62,-716.92 1528.62,-716.92 1528.62,-712.96 1532.58,-709 1536.54,-709 1536.54,-709 1728.71,-709 1728.71,-709 1732.67,-709 1736.62,-712.96 1736.62,-716.92 1736.62,-716.92 1736.62,-724.83 1736.62,-724.83 1736.62,-728.79 1732.67,-732.75 1728.71,-732.75"/>
<text text-anchor="middle" x="1632.62" y="-715.45" font-family="Arial" font-size="14.00" fill="#cfffac">constants/materialTypeConfig.js</text>
</g>
<!-- components/admin/forms/AdminResourceForm.jsx&#45;&gt;constants/materialTypeConfig.js -->
<g id="edge53" class="edge">
<title>components/admin/forms/AdminResourceForm.jsx&#45;&gt;constants/materialTypeConfig.js</title>
<path fill="none" stroke="#757575" d="M1290.99,-641.14C1328.54,-657.21 1398.01,-685.1 1460,-699.88 1478.31,-704.24 1497.94,-707.73 1517.15,-710.5"/>
<polygon fill="#757575" stroke="#757575" points="1516.52,-713.95 1526.9,-711.85 1517.48,-707.01 1516.52,-713.95"/>
</g>
<!-- store/resourceFormStore.js -->
<g id="node51" class="node">
<title>store/resourceFormStore.js</title>
<path fill="none" stroke="#cfffac" d="M1714.83,-690.75C1714.83,-690.75 1550.42,-690.75 1550.42,-690.75 1546.46,-690.75 1542.5,-686.79 1542.5,-682.83 1542.5,-682.83 1542.5,-674.92 1542.5,-674.92 1542.5,-670.96 1546.46,-667 1550.42,-667 1550.42,-667 1714.83,-667 1714.83,-667 1718.79,-667 1722.75,-670.96 1722.75,-674.92 1722.75,-674.92 1722.75,-682.83 1722.75,-682.83 1722.75,-686.79 1718.79,-690.75 1714.83,-690.75"/>
<text text-anchor="middle" x="1632.62" y="-673.45" font-family="Arial" font-size="14.00" fill="#cfffac">store/resourceFormStore.js</text>
</g>
<!-- components/admin/forms/AdminResourceForm.jsx&#45;&gt;store/resourceFormStore.js -->
<g id="edge54" class="edge">
<title>components/admin/forms/AdminResourceForm.jsx&#45;&gt;store/resourceFormStore.js</title>
<path fill="none" stroke="#757575" d="M1344.07,-641.25C1379.61,-646.57 1421.85,-652.73 1460,-657.88 1482.88,-660.96 1507.51,-664.09 1530.76,-666.95"/>
<polygon fill="#757575" stroke="#757575" points="1530.2,-670.41 1540.55,-668.15 1531.05,-663.46 1530.2,-670.41"/>
</g>
<!-- components/admin/forms/AdminReuseForm.jsx -->
<g id="node52" class="node">
<title>components/admin/forms/AdminReuseForm.jsx</title>
<path fill="none" stroke="#cfffac" d="M1406.33,-492.75C1406.33,-492.75 1118.17,-492.75 1118.17,-492.75 1114.21,-492.75 1110.25,-488.79 1110.25,-484.83 1110.25,-484.83 1110.25,-476.92 1110.25,-476.92 1110.25,-472.96 1114.21,-469 1118.17,-469 1118.17,-469 1406.33,-469 1406.33,-469 1410.29,-469 1414.25,-472.96 1414.25,-476.92 1414.25,-476.92 1414.25,-484.83 1414.25,-484.83 1414.25,-488.79 1410.29,-492.75 1406.33,-492.75"/>
<text text-anchor="middle" x="1262.25" y="-475.45" font-family="Arial" font-size="14.00" fill="#cfffac">components/admin/forms/AdminReuseForm.jsx</text>
</g>
<!-- components/admin/modals/AdminEDSResourceModal.jsx&#45;&gt;components/admin/forms/AdminEDSForm.jsx -->
<g id="edge55" class="edge">
<title>components/admin/modals/AdminEDSResourceModal.jsx&#45;&gt;components/admin/forms/AdminEDSForm.jsx</title>
<path fill="none" stroke="#757575" d="M998.26,-569.5C1020.41,-566.96 1043.14,-564.07 1064.5,-560.88 1107.56,-554.44 1155.54,-545.21 1193.34,-537.46"/>
<polygon fill="#757575" stroke="#757575" points="1193.65,-540.97 1202.73,-535.52 1192.23,-534.12 1193.65,-540.97"/>
</g>
<!-- components/admin/modals/AdminHitchcockResourceModal.jsx&#45;&gt;components/admin/forms/AdminHitchcockForm.jsx -->
<g id="edge57" class="edge">
<title>components/admin/modals/AdminHitchcockResourceModal.jsx&#45;&gt;components/admin/forms/AdminHitchcockForm.jsx</title>
<path fill="none" stroke="#757575" d="M1064.89,-371.88C1072.82,-371.88 1080.75,-371.88 1088.63,-371.88"/>
<polygon fill="#757575" stroke="#757575" points="1088.61,-375.38 1098.61,-371.88 1088.61,-368.38 1088.61,-375.38"/>
</g>
<!-- components/admin/modals/AdminNewResourceModal.jsx&#45;&gt;components/admin/forms/AdminResourceForm.jsx -->
<g id="edge58" class="edge">
<title>components/admin/modals/AdminNewResourceModal.jsx&#45;&gt;components/admin/forms/AdminResourceForm.jsx</title>
<path fill="none" stroke="#757575" d="M1049.04,-626.18C1062.43,-626.35 1075.92,-626.52 1089.26,-626.69"/>
<polygon fill="#757575" stroke="#757575" points="1088.86,-630.19 1098.91,-626.81 1088.95,-623.19 1088.86,-630.19"/>
</g>
<!-- components/admin/modals/AdminReuseResourceModal.jsx&#45;&gt;components/admin/forms/AdminReuseForm.jsx -->
<g id="edge59" class="edge">
<title>components/admin/modals/AdminReuseResourceModal.jsx&#45;&gt;components/admin/forms/AdminReuseForm.jsx</title>
<path fill="none" stroke="#757575" d="M1055.08,-489.77C1069.55,-489.15 1084.07,-488.52 1098.36,-487.91"/>
<polygon fill="#757575" stroke="#757575" points="1098.4,-491.41 1108.24,-487.48 1098.1,-484.41 1098.4,-491.41"/>
</g>
<!-- hooks/useBuildQuery.js&#45;&gt;store/searchStore.js -->
<g id="edge60" class="edge">
<title>hooks/useBuildQuery.js&#45;&gt;store/searchStore.js</title>
<path fill="none" stroke="#757575" d="M581.08,-592.83C599.6,-596.07 618.06,-602.61 632.25,-614.88 672.44,-649.63 627.12,-695.24 668.25,-728.88 700.74,-755.45 747.02,-761.47 786.57,-760.49"/>
<polygon fill="#757575" stroke="#757575" points="786.7,-763.98 796.55,-760.07 786.41,-756.99 786.7,-763.98"/>
</g>
</g>
</svg>
